<svg xmlns="http://www.w3.org/2000/svg" viewBox="0 0 400 300" width="400" height="300"><polyline points="65.36,86.47 80.76,66.88 96.75,43.06 61.95,29.31 31.32,39.34 26.0,79.37 65.36,86.47 73.27,110.63 115.03,138.1 172.85,199.24 188.18,245.8 313.6,262.82 363.7,186.68 261.75,197.97 229.75,181.36 172.85,199.24" fill="none" stroke="#4a9eff" stroke-width="1.6" stroke-opacity=".55" stroke-linecap="round" stroke-linejoin="round"/><circle cx="374.0" cy="178.01" r="1.8" fill="#f4f8fc"/><circle cx="373.63" cy="270.69" r="2.2" fill="#f4f8fc"/><circle cx="363.7" cy="186.68" r="2.6" fill="#f4f8fc"/><circle cx="330.89" cy="143.21" r="1.7" fill="#f4f8fc"/><circle cx="313.6" cy="262.82" r="3.5" fill="#f4f8fc"/><circle cx="312.35" cy="201.52" r="2.0" fill="#f4f8fc"/><circle cx="303.04" cy="50.33" r="2.2" fill="#f4f8fc"/><circle cx="300.04" cy="201.81" r="1.8" fill="#f4f8fc"/><circle cx="294.06" cy="122.87" r="2.0" fill="#f4f8fc"/><circle cx="273.46" cy="47.79" r="2.3" fill="#f4f8fc"/><circle cx="261.75" cy="197.97" r="2.7" fill="#f4f8fc"/><circle cx="249.7" cy="179.2" r="1.8" fill="#f4f8fc"/><circle cx="242.66" cy="83.32" r="1.8" fill="#f4f8fc"/><circle cx="229.75" cy="181.36" r="2.6" fill="#f4f8fc"/><circle cx="226.44" cy="234.67" r="1.9" fill="#f4f8fc"/><circle cx="216.97" cy="62.3" r="1.9" fill="#f4f8fc"/><circle cx="193.65" cy="67.76" r="2.2" fill="#f4f8fc"/><circle cx="190.97" cy="144.02" r="1.9" fill="#f4f8fc"/><circle cx="188.18" cy="245.8" r="2.7" fill="#f4f8fc"/><circle cx="185.43" cy="37.26" r="2.3" fill="#f4f8fc"/><circle cx="176.74" cy="202.16" r="2.0" fill="#f4f8fc"/><circle cx="172.85" cy="199.24" r="2.5" fill="#f4f8fc"/><circle cx="168.51" cy="86.87" r="2.1" fill="#f4f8fc"/><circle cx="150.9" cy="90.39" r="2.5" fill="#f4f8fc"/><circle cx="128.19" cy="39.84" r="2.2" fill="#f4f8fc"/><circle cx="101.34" cy="215.49" r="1.9" fill="#f4f8fc"/><circle cx="96.75" cy="43.06" r="2.2" fill="#f4f8fc"/><circle cx="88.61" cy="240.04" r="2.0" fill="#f4f8fc"/><circle cx="80.76" cy="66.88" r="1.9" fill="#f4f8fc"/><circle cx="73.27" cy="110.63" r="2.4" fill="#f4f8fc"/><circle cx="73.1" cy="212.01" r="1.9" fill="#f4f8fc"/><circle cx="65.36" cy="86.47" r="2.7" fill="#f4f8fc"/><circle cx="63.65" cy="228.52" r="2.3" fill="#f4f8fc"/><circle cx="61.95" cy="29.31" r="2.3" fill="#f4f8fc"/><circle cx="61.62" cy="267.69" r="2.1" fill="#f4f8fc"/><circle cx="38.14" cy="187.3" r="2.5" fill="#f4f8fc"/><circle cx="37.73" cy="144.21" r="1.8" fill="#f4f8fc"/><circle cx="31.32" cy="39.34" r="2.0" fill="#f4f8fc"/><circle cx="26.0" cy="79.37" r="3.2" fill="#f4f8fc"/></svg>