<svg xmlns="http://www.w3.org/2000/svg" viewBox="0 0 400 300" width="400" height="300"><polyline points="302.6,97.1 299.7,64.7 289.5,38.5" fill="none" stroke="#4a9eff" stroke-width="1.6" stroke-opacity=".55" stroke-linecap="round" stroke-linejoin="round"/><polyline points="299.7,64.7 258.3,92.2 242.0,100.0 229.1,116.6 200.8,173.0 197.4,207.9 192.0,247.9 157.2,256.0 107.3,253.8 86.9,227.2 97.0,217.0 114.6,199.1" fill="none" stroke="#4a9eff" stroke-width="1.6" stroke-opacity=".55" stroke-linecap="round" stroke-linejoin="round"/><circle cx="318.3" cy="166.8" r="2.4" fill="#f4f8fc"/><circle cx="318.2" cy="93.7" r="2.1" fill="#f4f8fc"/><circle cx="313.5" cy="41.9" r="1.8" fill="#f4f8fc"/><circle cx="313.0" cy="89.8" r="2.1" fill="#f4f8fc"/><circle cx="306.5" cy="125.9" r="2.5" fill="#f4f8fc"/><circle cx="306.5" cy="170.0" r="1.8" fill="#f4f8fc"/><circle cx="302.6" cy="97.1" r="3.0" fill="#f4f8fc"/><circle cx="301.3" cy="242.2" r="1.9" fill="#f4f8fc"/><circle cx="300.1" cy="211.1" r="2.7" fill="#f4f8fc"/><circle cx="299.7" cy="64.7" r="3.3" fill="#f4f8fc"/><circle cx="293.7" cy="94.8" r="1.9" fill="#f4f8fc"/><circle cx="293.6" cy="213.0" r="1.9" fill="#f4f8fc"/><circle cx="289.5" cy="38.5" r="3.2" fill="#f4f8fc"/><circle cx="289.5" cy="38.5" r="1.9" fill="#f4f8fc"/><circle cx="287.4" cy="274.0" r="2.0" fill="#f4f8fc"/><circle cx="287.2" cy="196.3" r="2.3" fill="#f4f8fc"/><circle cx="286.8" cy="46.5" r="2.4" fill="#f4f8fc"/><circle cx="285.6" cy="48.4" r="2.2" fill="#f4f8fc"/><circle cx="278.4" cy="127.7" r="1.8" fill="#f4f8fc"/><circle cx="276.5" cy="35.3" r="2.4" fill="#f4f8fc"/><circle cx="275.9" cy="113.9" r="2.1" fill="#f4f8fc"/><circle cx="264.0" cy="120.3" r="2.0" fill="#f4f8fc"/><circle cx="259.4" cy="79.0" r="2.1" fill="#f4f8fc"/><circle cx="258.3" cy="92.2" r="3.0" fill="#f4f8fc"/><circle cx="252.5" cy="40.7" r="2.1" fill="#f4f8fc"/><circle cx="249.6" cy="72.3" r="2.1" fill="#f4f8fc"/><circle cx="246.7" cy="26.0" r="2.3" fill="#f4f8fc"/><circle cx="242.0" cy="100.0" r="4.0" fill="#f4f8fc"/><circle cx="240.4" cy="87.8" r="2.0" fill="#f4f8fc"/><circle cx="238.1" cy="176.8" r="2.3" fill="#f4f8fc"/><circle cx="236.6" cy="53.9" r="2.2" fill="#f4f8fc"/><circle cx="232.7" cy="263.5" r="1.9" fill="#f4f8fc"/><circle cx="229.1" cy="116.6" r="3.0" fill="#f4f8fc"/><circle cx="228.2" cy="181.9" r="2.3" fill="#f4f8fc"/><circle cx="200.8" cy="173.0" r="3.3" fill="#f4f8fc"/><circle cx="197.4" cy="207.9" r="2.9" fill="#f4f8fc"/><circle cx="196.5" cy="207.6" r="2.6" fill="#f4f8fc"/><circle cx="193.2" cy="247.9" r="2.0" fill="#f4f8fc"/><circle cx="192.0" cy="247.9" r="2.6" fill="#f4f8fc"/><circle cx="177.6" cy="153.1" r="1.8" fill="#f4f8fc"/><circle cx="171.7" cy="171.4" r="1.9" fill="#f4f8fc"/><circle cx="160.1" cy="268.3" r="1.8" fill="#f4f8fc"/><circle cx="157.2" cy="256.0" r="2.8" fill="#f4f8fc"/><circle cx="150.9" cy="101.6" r="2.2" fill="#f4f8fc"/><circle cx="145.6" cy="80.1" r="1.8" fill="#f4f8fc"/><circle cx="139.6" cy="50.7" r="2.2" fill="#f4f8fc"/><circle cx="137.6" cy="86.7" r="2.8" fill="#f4f8fc"/><circle cx="133.3" cy="264.6" r="1.8" fill="#f4f8fc"/><circle cx="129.0" cy="79.1" r="2.3" fill="#f4f8fc"/><circle cx="127.0" cy="131.9" r="2.2" fill="#f4f8fc"/><circle cx="120.3" cy="200.9" r="3.1" fill="#f4f8fc"/><circle cx="119.0" cy="77.1" r="2.0" fill="#f4f8fc"/><circle cx="114.6" cy="199.1" r="3.7" fill="#f4f8fc"/><circle cx="108.8" cy="213.3" r="2.3" fill="#f4f8fc"/><circle cx="107.3" cy="253.8" r="3.6" fill="#f4f8fc"/><circle cx="97.0" cy="217.0" r="3.3" fill="#f4f8fc"/><circle cx="95.1" cy="56.0" r="1.9" fill="#f4f8fc"/><circle cx="87.0" cy="113.0" r="2.1" fill="#f4f8fc"/><circle cx="86.9" cy="227.2" r="3.0" fill="#f4f8fc"/><circle cx="83.8" cy="149.0" r="2.0" fill="#f4f8fc"/><circle cx="82.4" cy="198.5" r="2.8" fill="#f4f8fc"/><circle cx="81.7" cy="226.8" r="2.0" fill="#f4f8fc"/></svg>