<svg xmlns="http://www.w3.org/2000/svg" viewBox="0 0 400 300" width="400" height="300"><polyline points="286.41,239.49 206.73,243.33 132.71,237.7 26.4,172.25 94.64,79.47 188.44,58.42 236.8,96.13 361.33,145.76" fill="none" stroke="#4a9eff" stroke-width="1.6" stroke-opacity=".55" stroke-linecap="round" stroke-linejoin="round"/><circle cx="374.0" cy="52.53" r="3.4" fill="#f4f8fc"/><circle cx="367.42" cy="119.44" r="1.8" fill="#f4f8fc"/><circle cx="361.33" cy="145.76" r="3.6" fill="#f4f8fc"/><circle cx="361.19" cy="104.9" r="1.7" fill="#f4f8fc"/><circle cx="357.44" cy="47.64" r="2.2" fill="#f4f8fc"/><circle cx="357.28" cy="90.47" r="2.0" fill="#f4f8fc"/><circle cx="352.66" cy="141.38" r="1.8" fill="#f4f8fc"/><circle cx="351.71" cy="56.91" r="2.2" fill="#f4f8fc"/><circle cx="333.65" cy="160.43" r="2.0" fill="#f4f8fc"/><circle cx="327.27" cy="201.59" r="1.8" fill="#f4f8fc"/><circle cx="322.82" cy="218.89" r="1.8" fill="#f4f8fc"/><circle cx="318.89" cy="112.56" r="1.8" fill="#f4f8fc"/><circle cx="307.66" cy="178.92" r="1.8" fill="#f4f8fc"/><circle cx="301.45" cy="90.49" r="2.3" fill="#f4f8fc"/><circle cx="296.52" cy="218.46" r="1.8" fill="#f4f8fc"/><circle cx="295.81" cy="216.77" r="2.6" fill="#f4f8fc"/><circle cx="295.75" cy="55.84" r="1.7" fill="#f4f8fc"/><circle cx="295.1" cy="137.02" r="2.5" fill="#f4f8fc"/><circle cx="293.83" cy="145.52" r="2.0" fill="#f4f8fc"/><circle cx="292.28" cy="121.28" r="1.7" fill="#f4f8fc"/><circle cx="291.27" cy="219.22" r="1.9" fill="#f4f8fc"/><circle cx="288.61" cy="177.37" r="1.8" fill="#f4f8fc"/><circle cx="287.06" cy="86.17" r="2.4" fill="#f4f8fc"/><circle cx="286.41" cy="239.49" r="3.5" fill="#f4f8fc"/><circle cx="283.59" cy="129.3" r="2.5" fill="#f4f8fc"/><circle cx="282.14" cy="265.69" r="2.1" fill="#f4f8fc"/><circle cx="275.57" cy="119.97" r="1.9" fill="#f4f8fc"/><circle cx="273.94" cy="135.5" r="1.8" fill="#f4f8fc"/><circle cx="261.67" cy="214.25" r="2.0" fill="#f4f8fc"/><circle cx="256.23" cy="144.47" r="1.8" fill="#f4f8fc"/><circle cx="253.64" cy="68.43" r="2.2" fill="#f4f8fc"/><circle cx="244.98" cy="142.73" r="2.5" fill="#f4f8fc"/><circle cx="236.8" cy="96.13" r="3.4" fill="#f4f8fc"/><circle cx="230.24" cy="114.38" r="1.9" fill="#f4f8fc"/><circle cx="220.57" cy="34.31" r="1.9" fill="#f4f8fc"/><circle cx="218.93" cy="106.72" r="1.8" fill="#f4f8fc"/><circle cx="206.73" cy="243.33" r="3.2" fill="#f4f8fc"/><circle cx="197.81" cy="222.58" r="1.8" fill="#f4f8fc"/><circle cx="188.44" cy="58.42" r="2.6" fill="#f4f8fc"/><circle cx="181.96" cy="166.98" r="1.8" fill="#f4f8fc"/><circle cx="181.09" cy="195.58" r="1.8" fill="#f4f8fc"/><circle cx="175.39" cy="171.42" r="2.2" fill="#f4f8fc"/><circle cx="147.43" cy="125.37" r="1.8" fill="#f4f8fc"/><circle cx="143.75" cy="135.73" r="2.1" fill="#f4f8fc"/><circle cx="132.71" cy="237.7" r="2.7" fill="#f4f8fc"/><circle cx="112.85" cy="146.19" r="1.8" fill="#f4f8fc"/><circle cx="106.99" cy="202.65" r="1.9" fill="#f4f8fc"/><circle cx="94.64" cy="79.47" r="2.5" fill="#f4f8fc"/><circle cx="84.25" cy="243.57" r="2.1" fill="#f4f8fc"/><circle cx="81.48" cy="256.46" r="2.1" fill="#f4f8fc"/><circle cx="78.47" cy="73.47" r="1.9" fill="#f4f8fc"/><circle cx="59.22" cy="226.86" r="1.9" fill="#f4f8fc"/><circle cx="55.84" cy="141.53" r="1.8" fill="#f4f8fc"/><circle cx="46.57" cy="157.07" r="2.5" fill="#f4f8fc"/><circle cx="42.3" cy="250.86" r="2.2" fill="#f4f8fc"/><circle cx="26.4" cy="172.25" r="3.1" fill="#f4f8fc"/><circle cx="26.0" cy="265.53" r="1.8" fill="#f4f8fc"/></svg>