<svg xmlns="http://www.w3.org/2000/svg" viewBox="0 0 400 300" width="400" height="300"><polyline points="372.9,93.4 363.9,129.1 309.1,147.3 268.4,153.2 215.4,183.8 186.8,226.0 91.6,187.3 40.9,184.7" fill="none" stroke="#4a9eff" stroke-width="1.6" stroke-opacity=".55" stroke-linecap="round" stroke-linejoin="round"/><polyline points="229.9,60.2 242.2,116.8 268.4,153.2" fill="none" stroke="#4a9eff" stroke-width="1.6" stroke-opacity=".55" stroke-linecap="round" stroke-linejoin="round"/><polyline points="215.4,183.8 169.0,146.8 118.5,130.7 34.9,128.1" fill="none" stroke="#4a9eff" stroke-width="1.6" stroke-opacity=".55" stroke-linecap="round" stroke-linejoin="round"/><circle cx="374.0" cy="80.4" r="1.9" fill="#f4f8fc"/><circle cx="372.9" cy="93.4" r="2.4" fill="#f4f8fc"/><circle cx="363.9" cy="129.1" r="2.6" fill="#f4f8fc"/><circle cx="344.8" cy="92.7" r="2.0" fill="#f4f8fc"/><circle cx="336.7" cy="76.8" r="2.3" fill="#f4f8fc"/><circle cx="309.1" cy="147.3" r="2.5" fill="#f4f8fc"/><circle cx="308.3" cy="117.5" r="1.9" fill="#f4f8fc"/><circle cx="272.9" cy="202.2" r="2.0" fill="#f4f8fc"/><circle cx="269.1" cy="239.8" r="1.8" fill="#f4f8fc"/><circle cx="268.4" cy="153.2" r="3.1" fill="#f4f8fc"/><circle cx="268.0" cy="65.6" r="1.9" fill="#f4f8fc"/><circle cx="244.6" cy="213.8" r="2.0" fill="#f4f8fc"/><circle cx="242.2" cy="116.8" r="2.7" fill="#f4f8fc"/><circle cx="229.9" cy="60.2" r="3.0" fill="#f4f8fc"/><circle cx="219.2" cy="222.8" r="1.8" fill="#f4f8fc"/><circle cx="215.4" cy="183.8" r="2.2" fill="#f4f8fc"/><circle cx="202.6" cy="71.7" r="1.7" fill="#f4f8fc"/><circle cx="201.0" cy="101.3" r="2.0" fill="#f4f8fc"/><circle cx="186.8" cy="226.0" r="4.1" fill="#f4f8fc"/><circle cx="174.1" cy="189.2" r="2.0" fill="#f4f8fc"/><circle cx="170.1" cy="114.9" r="1.9" fill="#f4f8fc"/><circle cx="169.0" cy="146.8" r="2.7" fill="#f4f8fc"/><circle cx="156.0" cy="207.5" r="1.8" fill="#f4f8fc"/><circle cx="131.5" cy="153.6" r="1.8" fill="#f4f8fc"/><circle cx="118.5" cy="130.7" r="2.3" fill="#f4f8fc"/><circle cx="98.6" cy="124.2" r="1.9" fill="#f4f8fc"/><circle cx="97.4" cy="219.3" r="2.3" fill="#f4f8fc"/><circle cx="91.6" cy="187.3" r="2.4" fill="#f4f8fc"/><circle cx="85.0" cy="159.3" r="1.8" fill="#f4f8fc"/><circle cx="77.8" cy="79.0" r="1.9" fill="#f4f8fc"/><circle cx="76.3" cy="98.7" r="1.8" fill="#f4f8fc"/><circle cx="68.7" cy="159.0" r="2.0" fill="#f4f8fc"/><circle cx="43.6" cy="81.1" r="1.9" fill="#f4f8fc"/><circle cx="40.9" cy="184.7" r="2.5" fill="#f4f8fc"/><circle cx="34.9" cy="128.1" r="2.5" fill="#f4f8fc"/><circle cx="26.0" cy="159.5" r="1.9" fill="#f4f8fc"/></svg>