<svg xmlns="http://www.w3.org/2000/svg" viewBox="0 0 400 300" width="400" height="300"><path d="M232.18 238.96 L232.03 238.95 L232.01 239.18 L231.45 239.25 L231.27 239.43 L231.6 239.5 L231.32 239.57 L231.47 239.82 L231.36 239.98 L231.52 240.05 L231.44 240.23 L231.14 240.35 L231.37 240.48 L231.41 240.73 L231.28 240.69 L231.09 240.89 L231.22 241.06 L231.16 241.42 L231.02 241.5 L231.17 241.69 L231.11 242.0 L231.3 241.94 L231.45 241.62 L231.69 241.65 L231.73 241.5 L231.54 241.39 L231.54 241.23 L232.05 240.51 L232.17 240.24 L232.07 240.17 L232.1 239.96 L232.53 239.36 L232.27 239.24 L232.18 238.96 Z M231.4 230.67 L231.04 230.84 L231.23 230.9 L231.15 231.01 L230.68 231.13 L230.59 231.34 L230.14 231.66 L230.4 231.96 L230.72 232.08 L230.89 232.65 L231.64 231.05 L231.46 231.07 L231.4 230.67 Z M238.68 220.79 L238.76 220.61 L238.5 220.81 L238.05 220.82 L236.74 221.69 L236.26 222.2 L236.04 222.16 L236.12 222.25 L235.86 222.59 L235.65 222.61 L235.54 223.17 L235.74 223.17 L235.95 222.72 L237.3 221.58 L238.68 220.79 Z M252.99 214.14 L252.82 214.27 L252.7 214.78 L252.06 215.27 L252.07 215.42 L252.29 215.63 L253.2 215.41 L253.28 215.69 L253.51 215.79 L253.67 215.36 L253.34 215.28 L253.23 215.07 L253.36 214.93 L253.65 214.92 L253.51 214.85 L253.63 214.51 L253.4 214.28 L252.99 214.14 Z M260.34 209.88 L259.99 210.19 L259.91 210.05 L259.73 210.3 L259.37 210.42 L259.5 210.57 L259.61 210.5 L259.57 210.81 L259.9 210.47 L260.08 210.5 L260.08 210.61 L260.2 210.56 L260.21 210.67 L260.6 210.66 L260.66 210.5 L260.96 210.41 L261.03 210.54 L261.28 210.46 L261.13 210.28 L260.97 210.34 L261.05 210.09 L260.8 210.23 L260.78 210.08 L260.45 210.01 L260.61 209.95 L260.34 209.88 Z M297.75 140.8 L297.71 141.03 L297.84 141.07 L297.89 141.28 L297.78 141.19 L297.73 141.31 L297.9 141.4 L297.72 141.45 L297.67 141.61 L297.47 141.61 L297.44 141.85 L297.4 141.71 L296.96 141.98 L297.03 142.52 L298.38 141.41 L298.11 140.95 L297.75 140.8 Z M258.6 72.12 L258.01 72.7 L258.0 73.2 L258.27 73.38 L258.14 73.89 L257.94 74.03 L258.01 74.16 L258.69 73.71 L258.62 73.52 L258.42 73.44 L258.67 73.37 L258.72 73.23 L258.71 72.87 L258.5 72.86 L258.69 72.74 L258.71 72.16 L258.6 72.12 Z M261.23 69.99 L260.73 70.33 L259.76 70.59 L260.12 70.78 L259.83 70.76 L259.99 71.04 L259.58 70.76 L259.36 71.03 L259.48 71.13 L259.51 71.54 L259.62 71.57 L259.57 71.76 L259.79 71.78 L259.47 71.91 L259.46 72.26 L259.58 72.39 L259.88 72.41 L260.14 72.17 L260.47 72.08 L260.47 71.86 L260.24 71.86 L260.23 71.77 L260.44 71.7 L260.64 71.96 L260.7 71.74 L260.76 71.92 L260.9 71.83 L261.26 71.22 L261.2 71.05 L261.56 71.03 L261.54 70.9 L261.67 70.96 L261.72 70.57 L261.53 70.36 L261.54 70.62 L261.35 70.72 L261.48 70.4 L261.22 70.35 L261.39 70.14 L261.6 70.17 L261.23 69.99 Z M232.58 60.84 L232.19 60.92 L232.2 61.08 L231.78 61.49 L232.44 62.05 L232.87 61.51 L232.88 61.17 L232.73 61.07 L232.73 60.88 L232.58 60.84 Z M213.46 54.65 L212.9 55.28 L212.64 56.18 L212.59 56.1 L212.08 56.45 L211.98 56.82 L212.97 56.36 L213.72 55.65 L213.91 55.06 L213.8 54.89 L213.97 54.69 L213.63 54.64 L213.51 54.8 L213.46 54.65 Z M216.77 53.64 L216.03 53.83 L215.79 54.01 L214.86 54.1 L214.54 54.84 L214.57 54.96 L214.73 54.95 L214.52 54.98 L214.49 55.25 L215.34 55.41 L215.53 55.56 L216.59 54.76 L216.58 54.87 L217.37 54.43 L217.34 54.3 L217.11 54.24 L216.94 53.67 L216.77 53.64 Z M224.51 53.11 L224.09 53.14 L224.13 53.21 L223.55 53.42 L222.86 53.94 L222.62 54.33 L223.41 54.62 L225.24 54.46 L225.69 53.86 L225.83 53.87 L225.8 53.69 L225.53 53.56 L225.65 53.48 L225.57 53.35 L225.28 53.21 L225.09 53.26 L224.89 53.11 L224.89 53.21 L224.78 53.13 L224.67 53.23 L224.71 53.13 L224.51 53.11 Z M217.42 52.38 L217.31 52.45 L217.34 52.61 L217.25 52.47 L217.07 52.74 L217.13 52.99 L217.25 53.01 L217.22 53.18 L217.52 53.47 L217.71 53.23 L217.52 53.49 L217.58 53.56 L218.03 53.65 L218.27 53.87 L218.52 53.78 L218.45 52.73 L218.14 52.51 L217.75 52.41 L217.62 52.51 L217.42 52.38 Z M223.67 51.19 L223.22 51.28 L223.19 51.58 L223.24 51.48 L223.05 51.43 L223.15 51.37 L223.03 51.26 L222.91 51.52 L222.86 51.37 L222.64 51.44 L222.56 51.35 L222.11 51.55 L221.92 51.48 L221.86 51.6 L221.77 51.41 L221.62 51.58 L221.61 51.45 L221.45 51.56 L221.37 51.86 L221.46 51.68 L221.25 51.59 L221.23 51.76 L221.15 51.66 L221.14 51.79 L220.97 51.82 L221.04 51.89 L220.91 51.85 L220.85 52.01 L220.45 52.14 L219.68 52.05 L219.4 52.22 L218.83 52.15 L218.81 52.76 L219.02 53.09 L219.12 52.88 L219.04 53.2 L219.13 53.41 L219.36 53.47 L219.35 53.29 L219.4 53.47 L219.47 53.23 L219.42 53.48 L220.09 53.35 L220.96 53.46 L221.59 54.09 L222.53 53.5 L222.72 53.05 L223.28 52.4 L223.91 52.17 L224.15 51.76 L224.09 51.53 L223.83 51.29 L223.73 51.42 L223.78 51.27 L223.67 51.19 Z M219.24 50.45 L219.29 49.99 L219.17 49.56 L219.04 49.49 L218.68 49.95 L218.54 50.67 L218.76 50.72 L218.52 50.72 L218.41 51.13 L218.53 51.19 L218.41 51.17 L218.17 51.7 L218.26 51.94 L218.17 51.75 L217.88 51.89 L217.85 52.13 L218.01 52.33 L218.64 52.59 L218.66 52.11 L218.88 51.98 L219.16 52.02 L219.29 51.9 L219.18 51.76 L219.33 51.83 L219.53 51.7 L219.26 51.12 L219.24 50.45 Z M220.98 49.39 L220.81 49.34 L220.57 49.59 L220.54 49.8 L220.71 49.82 L220.54 49.82 L220.49 49.61 L220.4 49.74 L220.32 49.61 L219.85 49.66 L219.9 49.55 L219.63 49.63 L219.41 50.59 L219.51 51.37 L219.82 51.36 L220.1 51.04 L220.56 50.84 L221.1 50.22 L221.19 49.8 L220.98 49.39 Z M221.37 47.76 L221.37 47.49 L221.21 47.76 L220.09 47.7 L219.62 48.08 L219.52 48.54 L219.78 48.73 L220.79 48.55 L221.08 48.32 L221.01 48.25 L221.15 48.28 L221.1 47.99 L221.37 47.76 Z M221.98 46.45 L222.04 46.32 L221.95 46.29 L221.85 46.43 L221.22 46.58 L220.76 47.3 L221.15 47.41 L221.47 47.28 L221.52 47.14 L221.86 47.13 L221.91 46.76 L222.02 46.86 L221.98 46.45 Z M218.76 39.23 L218.69 39.35 L218.02 39.52 L217.92 40.03 L218.14 40.23 L218.35 40.87 L218.59 41.06 L218.94 40.97 L219.44 40.47 L219.06 39.69 L219.09 39.54 L218.76 39.23 Z M170.24 257.84 L170.18 257.9 L170.55 258.08 L170.49 258.38 L170.79 258.56 L171.19 258.42 L171.51 258.51 L171.47 258.67 L171.64 258.69 L171.82 258.47 L171.94 258.55 L172.21 258.37 L172.4 258.62 L172.54 258.43 L172.62 258.58 L172.85 258.58 L173.27 258.21 L173.18 257.96 L173.44 257.58 L173.6 257.54 L173.53 257.39 L173.71 257.44 L173.84 257.2 L174.01 257.34 L174.34 257.2 L174.86 257.27 L174.94 257.39 L175.08 257.21 L175.6 257.32 L175.8 257.49 L175.81 257.73 L176.29 257.81 L176.35 258.01 L176.69 258.0 L176.55 258.11 L176.84 258.28 L176.74 258.38 L176.94 258.44 L176.87 258.65 L177.18 258.58 L177.3 258.79 L177.4 258.74 L177.36 259.05 L177.56 259.06 L177.74 259.32 L177.93 259.22 L177.99 259.48 L178.37 259.66 L178.31 259.8 L178.48 260.01 L178.65 259.95 L178.87 260.22 L179.08 260.14 L179.15 260.41 L179.32 260.44 L179.28 260.58 L179.48 260.51 L179.56 260.73 L179.9 260.78 L179.82 260.88 L180.12 261.24 L180.03 261.39 L180.19 261.61 L180.33 261.57 L180.45 261.75 L180.6 261.68 L180.63 261.87 L180.9 261.94 L181.12 262.42 L180.95 262.99 L180.98 263.94 L181.86 263.9 L182.31 263.49 L182.56 263.49 L182.58 263.37 L182.88 263.25 L182.91 263.0 L183.29 263.08 L183.46 262.79 L183.35 262.47 L183.89 262.25 L184.11 262.65 L184.51 262.9 L184.51 263.03 L184.82 263.12 L184.94 263.51 L185.27 263.52 L185.43 263.65 L185.36 263.85 L185.58 263.99 L185.5 264.28 L185.83 264.35 L185.97 264.59 L185.89 264.7 L186.11 264.78 L186.17 265.15 L186.65 265.21 L187.29 265.64 L187.4 265.63 L187.55 265.25 L187.74 265.19 L188.11 265.63 L188.06 265.77 L188.23 265.8 L188.19 265.97 L188.56 265.94 L188.89 266.38 L189.46 266.26 L190.01 266.46 L190.58 266.48 L190.63 266.65 L191.06 266.85 L191.48 267.44 L191.38 267.54 L191.45 267.8 L193.85 269.67 L193.94 269.72 L194.31 269.45 L194.74 269.6 L194.79 269.85 L195.54 270.16 L195.64 270.52 L196.24 270.69 L196.38 270.81 L196.25 270.94 L196.38 271.11 L196.31 271.18 L196.43 271.2 L196.47 271.5 L196.93 272.16 L196.84 272.28 L197.0 272.52 L196.92 272.76 L197.12 272.83 L197.35 273.21 L197.73 273.46 L198.1 273.41 L198.36 273.98 L198.64 274.13 L198.78 274.01 L199.32 274.37 L199.59 274.24 L199.68 274.42 L200.74 275.12 L200.73 275.38 L200.32 275.47 L200.06 275.81 L199.22 276.37 L199.63 276.46 L198.23 277.28 L197.76 277.95 L197.85 279.6 L197.68 281.58 L198.29 281.61 L198.37 281.92 L198.79 281.95 L202.63 278.98 L203.23 278.39 L203.99 277.33 L204.74 275.87 L205.13 274.4 L205.92 272.6 L206.54 271.77 L207.32 271.26 L207.28 270.87 L207.41 270.59 L206.98 270.96 L206.94 270.82 L207.09 270.57 L207.5 270.52 L207.44 270.37 L207.25 270.34 L206.52 270.74 L206.4 270.69 L206.68 270.57 L206.62 270.44 L206.27 270.52 L206.54 269.9 L206.99 269.84 L206.98 269.68 L207.04 269.84 L207.2 269.8 L207.25 269.91 L207.27 269.8 L206.51 269.3 L206.41 269.43 L206.27 269.14 L206.48 269.14 L206.42 268.89 L206.55 268.84 L206.16 268.64 L206.49 268.73 L206.47 268.48 L206.69 268.29 L207.52 267.98 L207.44 267.9 L207.62 267.69 L207.59 267.44 L207.32 267.66 L207.23 267.15 L207.75 267.19 L207.61 267.46 L207.76 267.77 L207.58 267.95 L207.78 268.1 L207.99 266.33 L208.11 266.0 L208.31 265.94 L208.29 265.74 L208.51 265.64 L208.47 265.55 L208.8 265.6 L208.87 265.39 L208.94 265.64 L209.31 265.28 L209.47 265.22 L209.65 265.34 L209.54 265.19 L209.55 265.09 L209.74 265.29 L209.65 264.97 L209.83 265.25 L210.55 265.22 L210.39 264.75 L210.55 264.36 L211.77 263.99 L211.31 263.75 L211.4 263.64 L211.58 263.82 L211.34 262.93 L211.68 262.54 L212.25 262.55 L212.0 261.9 L212.21 260.94 L212.41 260.9 L212.59 261.03 L212.74 261.82 L212.65 261.93 L212.47 261.89 L212.78 262.02 L212.71 262.16 L212.83 262.11 L212.68 260.54 L212.85 260.06 L213.17 259.51 L213.63 259.41 L213.81 259.6 L214.1 259.1 L213.84 259.07 L213.5 259.24 L213.31 258.65 L213.08 258.86 L212.97 258.69 L212.73 258.67 L212.7 258.42 L212.88 258.32 L212.51 258.19 L212.66 257.85 L212.53 257.78 L212.66 257.54 L212.62 257.13 L212.68 256.93 L212.76 256.96 L212.69 256.67 L212.91 256.75 L212.83 256.88 L212.96 256.95 L213.08 256.65 L213.22 256.64 L213.22 256.75 L213.3 256.65 L212.92 257.32 L213.2 257.63 L213.19 257.83 L213.04 257.9 L213.37 257.94 L213.37 258.07 L213.52 258.13 L213.42 258.26 L213.68 258.27 L213.66 258.42 L213.81 258.47 L213.86 258.32 L214.04 258.4 L214.01 258.29 L214.18 258.27 L214.29 258.51 L214.49 258.48 L214.59 258.67 L214.33 259.04 L214.44 259.16 L214.32 259.27 L214.65 259.28 L215.25 259.62 L215.47 259.61 L215.17 259.51 L215.14 259.15 L215.29 258.86 L215.69 258.8 L216.1 258.93 L216.2 258.88 L216.1 258.82 L216.17 258.57 L216.94 258.64 L217.05 258.54 L216.83 258.05 L216.93 258.26 L217.02 257.98 L217.44 257.95 L217.59 258.28 L217.86 258.49 L217.65 259.77 L217.52 259.96 L217.27 259.89 L217.04 259.5 L217.28 259.41 L216.77 259.0 L216.55 259.1 L216.76 259.61 L216.88 260.61 L216.71 261.74 L216.42 262.15 L215.92 262.32 L215.36 262.74 L214.92 262.69 L215.03 263.28 L214.81 263.72 L214.4 263.81 L213.99 264.08 L213.57 263.83 L213.49 264.21 L213.65 265.36 L213.43 266.05 L212.94 266.67 L212.34 267.0 L211.99 266.91 L211.87 266.69 L211.59 267.1 L211.7 266.99 L211.6 267.22 L211.77 267.61 L211.51 267.23 L210.3 268.58 L208.91 268.82 L209.46 268.87 L208.94 269.29 L208.62 269.29 L207.92 268.92 L207.61 268.91 L207.28 269.08 L207.92 269.76 L207.86 269.95 L207.6 270.04 L207.72 270.44 L207.35 271.03 L207.43 271.28 L207.77 270.8 L209.04 269.67 L211.45 268.39 L212.9 267.35 L215.92 264.59 L219.19 260.08 L220.66 256.49 L220.58 256.51 L221.77 254.33 L223.45 251.97 L224.94 250.28 L225.97 249.32 L225.77 249.38 L225.68 249.27 L225.77 249.37 L226.02 249.29 L227.57 248.13 L229.16 247.28 L229.07 247.16 L228.84 247.32 L228.65 247.08 L229.19 247.04 L229.18 247.27 L229.44 247.23 L229.47 247.06 L229.82 246.74 L229.92 246.46 L229.66 246.64 L229.69 246.52 L229.17 246.38 L229.31 245.96 L229.09 245.98 L228.98 245.82 L229.13 245.75 L229.02 245.33 L229.11 245.2 L229.45 245.49 L229.57 245.38 L229.57 245.48 L229.78 245.47 L229.71 245.2 L229.89 245.14 L229.83 245.05 L230.0 244.71 L229.83 244.73 L229.96 244.6 L230.23 244.71 L230.18 245.03 L229.93 245.31 L229.97 245.46 L229.76 245.66 L229.54 245.53 L229.62 245.77 L229.48 246.05 L229.34 246.08 L229.62 246.28 L229.64 246.44 L229.92 246.45 L229.81 246.44 L229.79 246.25 L229.98 245.98 L229.97 245.71 L230.26 245.4 L230.18 245.3 L230.34 244.93 L230.61 244.68 L230.47 244.61 L230.55 244.16 L230.38 244.17 L230.32 244.03 L230.45 243.84 L230.45 244.15 L230.67 244.05 L230.7 243.69 L230.92 243.33 L230.71 243.16 L230.73 242.8 L231.07 242.36 L230.88 242.25 L231.07 242.06 L230.97 241.92 L230.74 241.92 L230.79 241.68 L230.67 241.7 L230.79 241.41 L230.62 241.13 L230.71 240.99 L230.5 240.72 L230.66 240.69 L230.73 240.44 L230.98 240.53 L231.11 240.36 L230.79 240.14 L230.58 239.62 L230.74 239.26 L231.15 239.18 L231.21 238.82 L231.41 238.9 L231.31 238.37 L230.95 238.5 L230.78 238.0 L230.56 238.09 L231.31 237.56 L231.56 237.67 L231.47 237.84 L231.68 237.77 L231.74 237.7 L231.6 237.68 L231.58 237.5 L231.82 237.33 L231.51 237.29 L231.51 237.09 L231.24 237.4 L230.95 237.27 L230.81 237.01 L230.98 236.89 L231.11 236.4 L231.04 236.29 L230.87 236.41 L230.72 236.3 L230.75 235.85 L230.43 235.66 L230.44 235.55 L230.34 235.59 L230.44 235.54 L230.6 235.75 L230.74 235.2 L230.89 235.18 L231.01 234.97 L230.93 234.8 L230.8 234.92 L230.66 234.74 L230.46 234.78 L230.32 234.17 L230.52 233.4 L230.35 233.86 L230.44 233.52 L230.31 233.46 L230.47 233.47 L230.89 232.75 L230.73 232.57 L230.77 232.28 L230.67 232.12 L230.31 231.99 L229.91 232.17 L230.16 231.96 L229.78 231.58 L229.48 231.66 L229.58 231.51 L229.85 231.54 L229.82 231.39 L229.69 231.4 L229.86 231.32 L229.68 231.3 L229.82 230.92 L229.68 230.65 L229.89 231.12 L230.2 231.26 L230.69 230.83 L231.02 230.74 L230.84 230.0 L230.95 229.4 L230.88 229.44 L231.18 228.84 L231.15 228.64 L230.87 228.69 L230.87 228.38 L231.01 228.39 L231.12 228.61 L231.35 228.6 L231.38 228.29 L231.92 227.35 L232.61 226.7 L232.42 226.49 L232.02 226.62 L231.99 226.74 L232.11 226.59 L231.84 226.53 L231.74 226.78 L231.73 226.65 L231.56 226.74 L231.78 226.46 L231.66 226.44 L231.52 226.7 L231.7 226.41 L231.41 226.55 L231.6 226.29 L231.51 226.21 L231.2 226.3 L231.32 226.4 L231.19 226.29 L230.86 226.4 L230.98 226.28 L230.78 226.47 L230.75 226.31 L230.51 226.33 L230.77 226.27 L230.55 226.15 L230.19 226.21 L229.94 226.05 L230.27 226.19 L230.37 225.91 L230.16 225.63 L230.01 225.63 L229.96 225.33 L230.11 225.29 L230.09 225.53 L230.34 225.66 L230.47 225.6 L230.45 225.43 L230.48 225.75 L230.63 225.82 L230.58 225.65 L230.66 225.98 L230.74 225.84 L230.66 225.78 L230.74 225.94 L231.48 225.82 L231.55 226.03 L231.8 226.06 L231.91 225.78 L232.17 225.67 L231.91 225.36 L231.8 225.71 L231.76 225.45 L231.95 225.34 L232.08 225.46 L232.03 225.18 L231.59 225.18 L231.54 225.02 L231.72 225.12 L232.03 225.03 L232.01 224.93 L232.07 225.01 L232.05 224.66 L231.81 224.54 L232.07 224.58 L232.06 224.34 L232.08 224.44 L232.17 224.39 L232.12 224.56 L232.37 224.76 L232.72 224.36 L232.73 224.52 L232.83 224.47 L232.66 224.56 L232.77 224.61 L232.71 224.84 L232.89 224.9 L232.7 225.01 L232.89 225.01 L232.67 225.17 L232.77 225.28 L232.95 225.03 L233.15 225.01 L233.02 224.76 L233.21 225.03 L233.4 224.92 L233.37 224.79 L234.06 224.74 L233.69 224.85 L233.72 225.03 L233.56 224.96 L233.47 225.07 L233.54 225.18 L233.43 225.1 L233.42 225.57 L233.32 225.56 L233.24 225.82 L233.36 225.98 L233.53 225.97 L233.82 225.4 L234.89 224.29 L234.85 224.12 L234.98 224.22 L235.01 223.99 L234.78 224.04 L234.7 223.86 L234.86 223.36 L234.56 223.29 L234.51 223.11 L234.7 223.22 L234.78 222.98 L234.66 222.93 L234.82 222.94 L234.8 222.85 L234.92 222.93 L234.99 222.7 L235.1 222.94 L235.4 222.51 L235.54 222.49 L235.44 222.44 L235.78 222.22 L235.86 222.07 L235.76 222.02 L236.29 222.04 L236.25 221.96 L236.72 221.7 L236.7 221.58 L236.8 221.66 L237.88 220.93 L237.84 220.63 L237.9 220.89 L238.17 220.72 L238.84 220.64 L239.03 220.45 L238.96 220.31 L239.17 220.36 L238.98 220.54 L240.14 219.93 L240.14 219.81 L241.12 219.1 L241.08 218.97 L241.19 218.96 L241.18 219.06 L241.63 218.85 L241.68 218.74 L241.49 218.63 L241.69 218.45 L241.64 218.28 L243.07 217.36 L243.02 217.2 L243.11 217.31 L245.08 216.27 L245.59 216.14 L245.76 216.15 L245.78 216.26 L245.9 215.94 L245.5 215.9 L245.59 215.8 L245.51 215.63 L245.79 215.6 L245.7 215.52 L245.87 215.35 L246.33 215.52 L246.49 215.93 L246.27 216.04 L246.27 216.19 L246.47 216.15 L246.53 216.35 L246.76 216.0 L247.2 215.98 L247.18 215.8 L247.34 215.68 L247.2 215.55 L247.43 215.41 L247.59 215.09 L247.25 215.28 L247.39 215.1 L247.9 214.81 L248.12 214.91 L248.25 214.73 L249.12 214.4 L250.81 214.54 L250.95 214.72 L251.39 214.64 L251.69 214.98 L252.03 214.81 L252.39 214.85 L252.5 214.76 L252.4 214.38 L252.5 214.16 L252.34 214.18 L252.29 214.07 L252.36 213.56 L252.76 213.51 L253.15 213.14 L253.38 213.31 L253.74 213.22 L253.62 212.92 L253.83 212.79 L253.9 212.94 L254.06 212.94 L254.01 212.61 L254.4 212.85 L254.44 212.71 L254.33 212.68 L254.58 212.63 L254.6 212.81 L254.74 212.45 L255.04 212.4 L254.74 212.34 L254.79 212.1 L255.31 212.0 L255.78 211.54 L255.93 211.57 L255.9 211.8 L256.19 211.74 L256.24 211.92 L257.02 211.79 L257.09 211.62 L257.29 211.67 L257.58 211.54 L257.83 211.77 L258.07 211.61 L258.17 211.35 L258.34 211.24 L258.53 211.29 L258.29 211.09 L257.98 211.1 L258.11 210.82 L257.88 210.87 L257.57 211.31 L257.49 211.26 L257.78 210.86 L257.27 210.99 L257.49 210.83 L257.45 210.73 L257.69 210.79 L257.76 210.66 L257.57 210.52 L257.11 210.85 L257.05 210.62 L257.21 210.46 L257.23 209.93 L257.4 209.65 L257.9 209.59 L257.9 209.71 L258.69 209.32 L258.94 209.46 L259.04 209.26 L258.98 209.04 L259.14 208.89 L259.35 209.0 L259.32 209.1 L259.54 208.96 L259.39 208.88 L259.47 208.76 L259.71 208.78 L259.65 209.05 L259.88 209.0 L259.45 209.35 L259.52 209.49 L259.8 209.32 L259.92 209.46 L260.26 209.29 L260.41 209.4 L260.21 209.63 L260.57 209.55 L260.61 209.66 L261.15 209.45 L261.36 209.23 L261.34 209.0 L261.58 208.88 L261.52 209.14 L261.63 209.18 L261.88 208.89 L262.99 208.62 L262.9 208.78 L263.3 208.7 L264.74 209.6 L264.42 209.49 L263.1 209.69 L262.52 209.44 L262.71 209.58 L262.7 209.73 L262.09 209.58 L261.85 209.77 L261.85 209.92 L264.24 209.62 L264.79 209.69 L264.83 209.58 L264.76 209.77 L264.9 209.8 L265.01 209.62 L265.41 209.49 L265.95 209.37 L266.72 209.4 L267.6 209.02 L267.64 208.85 L267.43 208.91 L267.48 208.69 L267.6 208.68 L267.55 208.56 L267.24 208.56 L267.23 208.4 L267.05 208.44 L267.02 208.2 L266.71 207.92 L267.22 207.42 L267.81 207.34 L268.09 207.1 L268.46 207.19 L268.48 207.53 L268.18 207.71 L268.1 207.85 L268.2 207.94 L267.73 208.61 L268.02 208.71 L267.97 208.83 L267.82 208.74 L267.76 208.85 L268.31 209.02 L268.31 209.15 L270.73 209.03 L271.05 208.86 L272.0 208.83 L274.6 208.94 L275.09 209.03 L275.31 209.25 L275.26 209.08 L275.41 209.01 L275.24 209.01 L275.14 208.85 L275.2 208.59 L275.35 208.5 L275.26 208.44 L275.36 208.4 L275.39 208.53 L275.57 208.08 L275.86 208.01 L275.97 207.78 L276.18 207.82 L276.14 207.71 L276.31 207.62 L276.24 207.48 L275.85 207.7 L275.45 207.3 L275.41 206.49 L275.45 206.56 L275.67 206.09 L275.84 206.12 L276.32 205.74 L276.48 205.43 L276.96 205.14 L276.85 205.0 L277.48 204.54 L277.43 204.44 L277.5 204.54 L278.73 203.99 L280.57 203.49 L282.24 202.53 L282.29 202.05 L281.95 200.6 L282.07 199.89 L281.82 199.91 L281.66 199.12 L282.4 198.19 L282.43 197.38 L282.72 196.9 L283.1 196.61 L283.46 195.78 L283.31 195.7 L283.43 195.78 L283.45 195.35 L283.77 194.81 L284.44 194.4 L284.63 194.69 L284.77 194.44 L284.91 194.46 L285.11 194.06 L285.35 193.94 L285.55 193.51 L285.35 193.48 L285.71 193.44 L285.71 193.21 L285.93 193.32 L286.11 193.06 L286.79 191.49 L287.05 191.19 L286.46 191.19 L286.46 190.85 L286.75 190.61 L286.73 190.82 L286.44 191.12 L286.79 191.16 L286.99 190.85 L287.26 190.92 L287.55 190.33 L287.69 189.67 L287.53 189.35 L287.77 189.24 L287.97 188.76 L287.56 188.63 L287.67 188.54 L287.76 188.67 L288.16 188.47 L288.75 187.38 L290.05 186.46 L290.0 186.27 L290.16 186.31 L290.75 184.54 L290.52 181.97 L290.53 180.38 L290.66 179.63 L290.59 179.1 L290.64 179.18 L290.9 177.97 L291.34 176.86 L291.84 176.14 L291.76 176.03 L291.89 176.06 L292.61 175.09 L293.2 174.8 L293.1 174.61 L293.25 174.41 L293.41 174.47 L293.25 174.43 L293.2 174.68 L293.33 174.76 L293.74 174.61 L293.81 174.35 L294.23 173.93 L294.23 173.81 L293.73 173.64 L293.73 173.9 L293.57 173.97 L293.67 173.98 L293.76 173.75 L293.51 173.67 L293.73 173.6 L293.27 173.53 L293.58 173.6 L293.52 173.31 L293.6 173.55 L294.08 173.77 L294.69 173.36 L294.31 172.69 L294.12 169.98 L294.49 169.1 L294.41 168.72 L294.57 168.57 L294.59 168.2 L294.83 167.99 L294.64 167.78 L294.61 167.37 L294.99 166.35 L295.19 164.84 L295.56 164.47 L295.44 163.74 L295.9 163.22 L296.01 162.21 L296.58 161.0 L296.35 160.99 L296.48 160.84 L296.33 160.43 L296.35 160.61 L296.07 160.0 L295.96 160.01 L295.99 159.87 L295.87 159.87 L295.97 159.82 L295.81 159.79 L295.96 159.76 L295.95 159.53 L295.7 159.59 L295.92 159.47 L295.9 158.88 L295.84 158.75 L295.75 158.81 L295.74 158.48 L295.89 158.29 L295.78 158.18 L295.94 158.28 L295.5 156.63 L295.57 156.71 L295.67 155.14 L295.48 154.63 L295.5 153.84 L295.37 153.84 L295.33 153.98 L295.14 153.89 L295.3 153.88 L295.28 153.77 L295.44 153.82 L295.48 153.67 L295.21 153.67 L295.2 152.69 L295.77 150.35 L295.63 150.23 L295.3 150.38 L295.66 150.21 L296.09 147.78 L295.95 147.57 L295.67 147.8 L295.71 147.98 L295.83 147.91 L295.72 148.03 L295.82 148.18 L295.94 148.15 L295.86 148.33 L295.76 148.29 L295.84 148.41 L295.71 148.57 L295.86 148.67 L295.86 148.87 L295.7 148.95 L295.67 148.66 L295.45 148.54 L295.59 148.48 L295.62 148.22 L295.3 148.13 L295.29 147.98 L295.11 148.03 L295.01 147.63 L295.23 147.52 L295.47 147.7 L295.57 147.42 L295.69 147.43 L295.4 147.41 L295.5 147.37 L295.48 147.15 L295.53 147.32 L295.74 147.26 L295.62 146.93 L295.63 146.62 L295.84 146.26 L295.72 145.78 L295.83 145.86 L295.83 146.19 L296.05 146.07 L296.16 146.2 L296.28 146.13 L296.18 145.94 L296.34 146.08 L296.36 145.82 L296.24 145.84 L296.17 145.54 L295.81 145.51 L296.08 145.53 L296.07 145.13 L296.24 144.94 L296.14 144.87 L296.35 144.73 L296.24 144.2 L296.14 144.14 L295.78 144.35 L295.47 144.34 L295.36 144.19 L295.61 144.07 L295.91 144.2 L295.82 143.63 L296.12 143.08 L295.9 143.06 L296.21 143.07 L296.92 142.63 L296.53 142.41 L296.78 142.45 L296.91 142.16 L296.87 142.05 L296.66 142.12 L296.78 142.04 L296.6 141.96 L296.83 141.99 L296.8 141.77 L296.98 141.8 L297.22 141.55 L297.26 140.98 L297.49 140.78 L297.32 140.82 L297.22 140.71 L297.1 140.86 L296.97 140.54 L296.79 140.69 L296.64 140.63 L296.65 140.5 L296.85 140.59 L297.11 140.41 L297.31 139.9 L297.26 139.71 L297.45 139.46 L297.26 139.18 L297.46 139.32 L297.51 139.02 L297.42 138.97 L297.55 138.99 L297.7 138.81 L297.66 139.11 L297.99 139.08 L298.02 139.32 L298.19 139.41 L298.01 139.51 L298.17 139.54 L298.13 139.76 L298.29 139.83 L298.43 139.57 L298.76 139.87 L298.99 139.78 L299.04 140.21 L299.32 140.11 L299.27 140.39 L299.09 140.39 L299.16 140.19 L298.99 140.23 L299.14 140.53 L299.0 140.96 L299.11 140.96 L298.97 141.2 L298.97 141.0 L298.81 141.13 L298.91 141.28 L298.7 141.69 L299.17 141.72 L299.71 141.34 L299.95 141.35 L300.46 140.85 L300.29 140.71 L300.48 140.83 L300.7 140.68 L301.89 139.37 L302.05 138.84 L302.34 138.78 L302.84 137.78 L304.37 135.7 L304.4 135.37 L304.48 135.48 L304.97 134.7 L305.66 133.1 L305.47 133.41 L305.43 133.29 L305.55 133.26 L306.23 131.82 L306.69 131.21 L306.16 131.55 L306.41 131.27 L306.27 131.27 L306.38 131.23 L306.17 130.99 L306.28 130.9 L306.42 130.92 L306.41 131.04 L306.86 130.98 L307.26 130.05 L307.97 129.22 L307.9 129.15 L307.88 129.26 L307.87 128.77 L308.01 128.66 L307.99 128.93 L308.11 128.93 L308.89 127.91 L308.8 127.74 L308.87 127.88 L308.77 128.0 L308.77 127.39 L308.95 127.73 L309.7 126.75 L310.42 126.09 L312.03 125.04 L311.73 125.15 L311.88 125.05 L312.91 124.72 L312.91 124.46 L312.73 124.47 L312.95 124.28 L313.07 124.43 L313.19 124.32 L313.05 124.52 L313.18 124.72 L313.85 123.73 L313.78 123.49 L313.94 123.18 L314.62 122.61 L314.78 122.31 L314.65 122.56 L314.94 122.41 L315.18 122.0 L315.46 121.9 L316.23 120.7 L316.49 120.48 L316.39 120.27 L316.26 120.34 L315.89 120.13 L316.15 120.27 L316.58 120.28 L317.17 119.48 L316.8 119.56 L316.78 119.71 L316.65 119.64 L316.44 119.1 L316.15 118.87 L316.15 118.66 L316.4 118.74 L316.67 119.27 L316.7 119.65 L316.99 119.35 L317.02 119.54 L317.27 119.3 L317.2 119.22 L317.33 118.98 L317.08 118.66 L317.19 118.57 L317.55 119.0 L317.43 118.99 L317.27 119.37 L317.52 119.15 L317.89 119.08 L318.03 118.62 L319.13 117.57 L319.2 117.1 L319.09 117.12 L319.07 116.97 L319.11 117.13 L319.22 117.11 L319.21 117.43 L319.35 117.05 L319.79 116.75 L319.51 116.67 L319.92 116.64 L320.55 115.86 L320.62 115.56 L320.42 115.56 L320.61 115.54 L320.63 115.65 L321.09 114.67 L321.4 114.34 L321.68 113.65 L321.62 113.42 L321.98 112.84 L322.01 112.55 L321.83 112.52 L321.73 112.27 L321.79 112.36 L321.83 112.16 L322.02 112.17 L321.79 112.38 L321.96 112.48 L322.07 112.34 L322.24 111.94 L322.08 111.76 L322.2 111.75 L322.24 111.91 L322.3 111.66 L322.49 111.6 L322.77 110.62 L322.62 110.51 L322.79 110.54 L322.87 110.38 L322.73 110.19 L322.97 110.23 L322.92 109.73 L323.06 109.38 L322.93 109.4 L323.12 109.3 L323.43 108.33 L323.25 108.42 L323.21 108.21 L323.32 108.27 L323.45 108.07 L323.43 108.25 L323.66 107.83 L323.78 107.3 L323.69 106.74 L323.58 106.9 L323.6 106.56 L323.3 106.62 L323.48 106.54 L323.3 106.47 L323.33 106.13 L323.19 106.14 L323.31 105.97 L323.47 105.99 L323.4 105.84 L323.21 105.95 L323.33 105.86 L323.26 105.75 L323.49 105.8 L323.42 105.39 L323.62 105.67 L323.59 105.35 L323.67 105.65 L323.86 105.26 L323.7 104.85 L323.61 104.91 L323.66 104.73 L323.33 104.66 L323.73 104.75 L323.87 104.49 L323.96 102.07 L323.77 101.93 L323.62 101.41 L323.74 101.09 L323.68 100.81 L323.52 101.46 L323.28 101.85 L323.15 101.81 L323.26 101.68 L323.14 101.52 L323.43 101.29 L323.37 100.81 L323.55 100.82 L323.54 100.39 L323.22 100.13 L323.02 100.22 L323.21 100.1 L323.11 99.47 L322.9 99.45 L322.76 99.63 L322.87 99.43 L323.02 99.42 L322.92 99.31 L323.05 99.26 L323.02 98.95 L322.88 98.85 L322.73 98.34 L322.78 97.6 L322.65 96.87 L322.4 96.72 L322.3 96.41 L322.08 96.64 L322.33 96.32 L322.32 95.88 L322.06 95.75 L321.95 95.49 L321.56 95.76 L321.74 95.5 L321.64 95.2 L321.92 95.49 L321.92 94.64 L321.8 94.17 L321.53 93.9 L321.54 93.49 L321.35 93.32 L321.36 92.9 L321.25 92.63 L321.1 92.84 L320.91 92.8 L320.88 92.98 L320.73 92.83 L321.11 92.8 L321.21 92.59 L321.27 92.23 L321.08 92.08 L321.05 91.43 L320.43 90.06 L320.16 89.87 L319.95 89.22 L319.3 88.58 L318.41 88.26 L318.29 88.32 L315.99 87.77 L314.87 88.14 L313.8 88.11 L314.38 88.17 L314.49 88.29 L314.18 88.25 L314.33 88.4 L313.98 88.17 L313.89 88.16 L314.03 88.32 L313.51 88.05 L313.33 88.11 L312.59 87.91 L312.32 87.98 L312.72 88.02 L311.8 88.06 L312.21 88.22 L311.69 88.25 L311.6 88.11 L311.21 88.11 L311.59 88.34 L311.11 88.11 L311.07 87.94 L310.76 88.14 L310.98 88.05 L310.65 87.86 L310.63 88.07 L310.58 87.84 L309.95 87.2 L309.57 87.14 L309.34 86.95 L308.83 87.18 L308.54 87.03 L308.49 87.13 L308.39 86.98 L308.06 87.07 L308.16 87.17 L308.09 87.33 L308.15 87.17 L307.57 86.68 L306.95 85.53 L305.73 84.98 L305.42 85.1 L305.09 84.98 L304.2 84.15 L303.91 83.63 L303.74 83.81 L303.85 83.98 L303.77 84.13 L303.72 83.85 L303.94 83.6 L303.89 83.45 L303.43 83.35 L302.97 83.04 L301.36 81.44 L301.27 81.5 L301.34 81.42 L301.14 81.13 L300.84 81.49 L301.13 81.11 L300.5 80.35 L300.28 80.35 L299.97 80.03 L299.42 79.2 L299.23 79.17 L299.41 79.17 L299.15 78.72 L299.01 78.88 L298.37 78.65 L298.09 78.74 L298.36 78.69 L297.89 78.56 L297.21 78.08 L296.88 77.64 L296.62 77.64 L296.18 77.35 L295.75 76.73 L295.55 76.66 L294.98 76.8 L295.19 76.75 L294.84 76.33 L294.53 76.24 L293.93 75.49 L293.2 75.16 L292.88 75.29 L293.01 75.21 L292.84 75.06 L291.59 74.44 L291.36 74.11 L290.96 73.95 L290.82 73.96 L290.84 74.08 L290.39 73.68 L289.1 72.97 L289.18 73.05 L288.72 72.87 L288.76 73.0 L287.96 72.79 L288.01 72.96 L287.91 73.05 L287.9 72.9 L287.61 72.71 L286.11 72.73 L285.48 72.51 L284.89 72.92 L284.2 72.96 L284.35 73.06 L283.64 72.96 L283.18 73.15 L283.36 73.25 L283.3 73.45 L283.04 73.01 L282.08 73.23 L281.46 73.23 L281.6 73.46 L281.39 73.24 L280.33 73.15 L280.0 73.37 L280.16 73.3 L280.12 73.39 L280.55 73.6 L280.35 73.55 L280.54 73.88 L280.31 73.54 L280.28 73.85 L280.25 73.75 L280.13 73.86 L279.93 73.7 L279.89 73.86 L279.88 73.43 L279.4 73.27 L279.19 73.28 L279.14 73.48 L279.08 73.25 L278.15 73.3 L277.7 73.05 L277.37 73.05 L277.55 73.05 L277.43 72.95 L277.63 72.99 L276.64 72.19 L276.36 72.36 L276.52 72.19 L276.51 71.98 L275.24 72.08 L275.24 72.21 L275.59 72.25 L275.34 72.44 L275.62 72.58 L275.49 72.59 L275.61 72.74 L275.39 72.58 L275.15 72.82 L275.34 72.61 L275.19 72.41 L275.18 72.57 L275.07 72.68 L274.84 72.65 L274.9 72.73 L274.77 72.86 L274.79 72.64 L274.35 72.64 L274.43 72.77 L274.35 72.67 L274.04 72.75 L273.9 72.62 L273.64 73.02 L273.58 72.91 L273.65 73.01 L273.8 72.73 L273.72 72.62 L273.53 72.72 L273.66 72.55 L273.4 72.52 L273.57 72.44 L273.54 72.32 L272.84 72.45 L272.68 72.26 L272.18 72.23 L272.41 72.28 L272.38 72.13 L272.02 72.05 L272.01 72.18 L271.94 72.03 L272.08 71.97 L271.5 71.83 L270.56 70.98 L270.45 71.01 L270.68 71.18 L270.64 71.51 L270.71 71.45 L270.81 71.58 L270.74 71.68 L270.92 71.66 L270.84 71.82 L270.63 71.74 L270.49 71.94 L270.4 71.79 L270.54 71.89 L270.7 71.66 L270.6 71.52 L270.69 71.39 L270.65 71.2 L270.36 71.04 L267.93 70.09 L267.44 69.77 L266.5 69.51 L266.66 69.7 L266.42 69.52 L266.21 69.58 L266.23 69.69 L266.08 69.57 L265.92 69.66 L265.87 69.53 L266.05 69.51 L265.81 69.45 L265.79 69.58 L265.58 69.57 L265.43 69.8 L265.54 69.78 L265.79 70.08 L266.14 69.95 L266.12 70.05 L266.12 69.96 L265.86 70.04 L265.9 70.14 L266.32 70.16 L265.89 70.18 L265.9 70.26 L265.55 70.05 L265.79 70.44 L265.61 70.32 L265.68 70.74 L265.77 70.73 L265.64 70.83 L265.92 70.86 L265.66 70.88 L265.71 71.03 L265.57 71.18 L265.68 71.03 L265.59 70.65 L265.51 70.59 L265.36 70.9 L265.29 70.46 L265.14 70.56 L265.26 70.17 L265.18 70.07 L265.08 70.19 L265.12 70.03 L264.93 70.24 L265.07 70.52 L264.94 70.63 L264.93 70.41 L264.75 70.63 L264.79 70.79 L264.99 70.77 L264.88 70.73 L264.81 70.85 L264.68 70.67 L264.61 70.92 L264.53 70.74 L264.4 71.1 L264.45 70.79 L264.29 70.58 L264.16 70.81 L264.24 70.49 L263.99 70.76 L264.03 70.94 L264.23 70.95 L263.86 70.87 L263.82 71.08 L263.75 70.81 L263.89 70.72 L263.72 70.66 L263.82 70.68 L263.8 70.53 L263.65 70.55 L263.77 70.43 L263.53 70.59 L263.53 70.94 L263.34 70.93 L263.54 70.91 L263.47 70.65 L263.21 70.98 L262.92 71.0 L262.97 71.17 L262.9 70.98 L262.79 71.19 L262.78 70.81 L262.74 71.19 L262.57 70.97 L262.54 71.21 L262.29 70.98 L262.14 71.38 L262.21 71.6 L261.97 71.41 L261.38 72.08 L261.5 73.12 L261.33 73.75 L261.44 72.99 L261.39 72.69 L261.26 72.71 L261.22 72.3 L261.13 72.4 L261.15 72.25 L261.0 72.28 L260.86 72.93 L260.75 72.86 L260.31 73.3 L260.34 73.73 L260.25 73.38 L260.41 73.0 L260.21 73.09 L260.12 72.75 L259.98 72.72 L260.0 73.1 L259.82 72.56 L259.66 72.72 L259.86 73.08 L259.75 73.02 L259.69 73.14 L259.66 72.95 L259.52 73.13 L259.55 72.54 L259.65 72.48 L259.4 72.37 L259.22 73.14 L259.16 72.77 L259.26 72.68 L259.13 72.72 L259.13 73.37 L258.89 73.87 L258.0 74.76 L257.78 74.77 L257.51 75.34 L257.11 75.32 L256.76 75.51 L256.94 76.05 L256.79 76.15 L256.54 76.04 L256.4 76.39 L256.52 75.98 L256.28 75.66 L256.63 75.99 L256.79 75.97 L256.42 75.24 L256.52 75.36 L257.06 75.24 L257.09 75.07 L257.76 74.42 L257.75 74.17 L257.36 74.15 L257.32 73.97 L257.31 73.52 L257.53 73.16 L257.44 72.66 L257.61 72.19 L257.47 72.18 L257.38 72.35 L257.18 72.17 L257.59 72.08 L257.67 71.78 L257.76 71.96 L257.98 71.4 L258.18 71.21 L258.25 70.85 L258.08 70.83 L257.96 71.06 L257.47 71.41 L256.86 71.42 L257.44 71.35 L257.92 71.05 L258.06 70.76 L258.36 70.73 L258.53 70.35 L258.42 70.23 L258.35 70.3 L258.62 70.02 L258.44 69.86 L258.05 70.05 L258.23 69.89 L258.47 69.75 L258.69 69.99 L259.28 69.98 L259.39 69.78 L259.24 69.61 L259.49 69.48 L259.3 69.08 L259.12 69.15 L259.28 69.02 L259.21 68.73 L259.09 68.72 L259.26 68.63 L259.06 68.47 L258.89 68.52 L259.0 68.4 L258.87 68.24 L258.56 68.2 L258.13 68.68 L258.41 68.7 L258.35 68.78 L258.46 68.82 L258.28 68.7 L257.98 68.77 L257.74 69.06 L258.08 69.04 L257.76 69.13 L257.55 69.39 L257.58 69.62 L257.75 69.71 L257.51 70.03 L257.63 70.37 L257.48 70.31 L257.49 69.68 L256.75 70.12 L257.27 69.59 L256.99 69.39 L257.13 69.2 L256.85 69.11 L256.57 69.29 L256.37 69.26 L255.95 69.78 L255.25 70.21 L255.88 69.74 L256.34 69.17 L256.62 69.15 L256.84 68.89 L256.97 68.95 L256.89 69.07 L257.3 69.11 L257.12 68.82 L257.47 68.95 L257.98 68.38 L257.97 68.28 L257.77 68.29 L258.13 68.07 L258.23 67.8 L258.41 67.8 L258.66 67.55 L258.49 67.41 L258.25 67.62 L258.32 67.46 L258.03 67.48 L258.12 67.35 L258.33 67.41 L258.66 67.23 L258.67 67.1 L258.42 66.99 L258.44 66.88 L258.5 66.98 L258.57 66.9 L258.58 67.05 L258.63 66.97 L258.41 66.48 L258.41 66.69 L258.3 66.56 L258.21 66.71 L258.24 66.53 L258.11 66.6 L258.16 66.77 L258.03 66.55 L257.8 66.71 L258.05 66.41 L258.25 66.41 L258.41 66.25 L258.29 66.01 L258.08 66.32 L257.72 66.38 L257.93 66.22 L257.82 66.15 L257.57 66.34 L257.82 66.13 L257.75 66.04 L257.88 65.86 L258.08 65.78 L258.02 65.71 L257.78 65.75 L257.69 66.1 L257.12 66.48 L257.68 66.06 L257.62 65.77 L257.92 65.46 L257.42 65.33 L257.58 65.45 L257.46 65.52 L257.54 65.87 L257.5 65.65 L257.32 66.02 L257.37 65.91 L257.04 66.04 L257.19 66.0 L257.03 65.85 L256.91 65.94 L257.02 65.79 L256.52 65.92 L257.15 65.38 L256.66 65.24 L256.59 65.32 L256.72 65.48 L256.49 65.54 L256.72 65.39 L256.44 65.35 L256.61 65.09 L256.47 65.08 L256.52 64.98 L256.41 64.91 L256.57 64.73 L256.54 64.62 L256.36 64.69 L256.43 64.43 L256.23 64.3 L256.1 64.61 L256.31 64.78 L256.24 64.99 L256.3 64.8 L256.07 64.91 L256.19 64.76 L255.99 64.71 L255.98 64.51 L255.75 64.53 L255.77 64.71 L255.58 64.65 L255.72 64.89 L255.51 64.58 L255.43 64.66 L255.45 64.55 L255.68 64.65 L255.67 64.17 L255.89 64.02 L255.7 64.01 L256.04 63.85 L255.84 63.75 L256.1 63.83 L256.16 63.69 L256.24 63.83 L256.27 63.39 L256.33 63.49 L256.4 63.4 L256.27 63.2 L255.92 63.27 L256.01 63.39 L256.13 63.31 L256.11 63.41 L255.97 63.39 L255.98 63.62 L255.88 63.48 L255.59 63.72 L255.68 63.89 L255.69 63.79 L255.45 63.81 L255.57 63.93 L255.38 63.79 L255.46 64.38 L255.03 64.43 L255.02 64.33 L255.35 64.27 L255.39 64.12 L255.28 64.03 L255.04 64.1 L255.16 64.02 L255.02 63.98 L255.22 63.89 L255.14 63.71 L254.9 63.82 L254.74 63.7 L254.71 63.8 L254.71 63.33 L254.62 63.38 L254.66 63.72 L254.47 63.71 L254.51 63.9 L254.48 63.64 L254.38 63.64 L254.33 63.92 L254.18 63.98 L254.3 63.87 L254.14 63.56 L253.96 64.03 L253.82 63.9 L253.57 64.14 L253.44 64.58 L253.64 64.99 L254.1 65.06 L253.62 65.02 L253.32 65.17 L253.6 65.79 L253.53 66.01 L253.65 66.17 L253.56 66.2 L253.44 66.04 L253.53 65.81 L253.31 65.4 L253.0 65.57 L252.72 65.33 L252.76 65.03 L252.64 65.0 L252.85 64.66 L252.68 64.65 L252.87 64.63 L252.93 64.22 L252.54 64.08 L252.45 64.32 L252.82 63.63 L252.53 63.75 L252.58 63.61 L253.03 63.43 L253.06 63.21 L253.16 63.32 L253.11 62.77 L252.96 62.58 L252.82 62.52 L252.7 62.64 L252.91 62.92 L252.74 62.78 L252.62 62.91 L252.67 63.09 L252.39 63.32 L252.34 63.52 L252.33 63.25 L252.11 63.48 L252.03 63.71 L252.17 63.89 L251.95 63.83 L251.96 63.66 L251.65 63.9 L251.9 63.68 L251.77 63.53 L251.61 63.63 L251.74 63.51 L251.89 63.62 L251.95 63.47 L251.84 63.37 L251.97 62.98 L252.21 62.87 L252.21 62.72 L252.28 62.83 L252.36 62.77 L252.38 62.42 L252.12 62.46 L252.27 62.5 L251.97 62.62 L251.88 62.97 L251.89 62.88 L251.65 63.24 L251.38 63.34 L251.48 63.21 L251.39 63.23 L251.62 63.19 L251.4 63.09 L251.25 63.17 L251.38 63.07 L251.64 63.14 L251.7 62.91 L251.47 62.96 L251.69 62.83 L251.59 62.79 L251.76 62.43 L251.56 62.71 L251.41 62.72 L251.38 62.88 L251.37 62.7 L251.53 62.67 L251.56 62.51 L251.26 62.73 L251.39 62.64 L251.37 62.31 L251.16 62.69 L251.17 62.47 L251.04 62.49 L251.2 62.43 L251.2 62.2 L250.96 62.43 L251.01 62.73 L250.89 62.93 L250.44 62.98 L250.59 63.23 L250.49 63.36 L250.49 63.12 L250.26 63.21 L250.41 63.07 L250.4 62.84 L250.58 62.77 L250.5 62.59 L250.33 62.57 L250.23 62.79 L250.27 62.61 L250.43 62.54 L250.46 62.26 L250.3 62.01 L250.12 62.05 L250.57 61.38 L250.17 61.36 L250.23 61.45 L249.85 62.1 L249.91 62.31 L249.73 62.13 L249.5 62.33 L249.79 61.94 L249.83 61.59 L249.65 61.57 L249.69 61.96 L249.59 62.12 L249.67 61.94 L249.53 61.75 L249.35 62.35 L249.37 62.21 L249.19 62.24 L249.46 61.98 L249.28 62.11 L249.43 61.85 L249.18 61.95 L249.08 62.19 L249.01 62.05 L249.31 61.81 L249.36 61.62 L249.16 61.67 L249.33 61.52 L249.27 61.43 L248.97 61.79 L249.2 61.39 L249.14 61.21 L248.82 61.74 L248.93 61.93 L248.85 61.81 L248.75 62.05 L248.64 62.02 L248.74 61.8 L248.52 61.72 L248.74 61.74 L248.78 61.52 L248.66 61.52 L248.8 61.39 L248.46 61.53 L248.49 61.37 L248.74 61.27 L248.71 61.16 L248.53 61.27 L248.6 61.04 L248.5 61.04 L248.69 60.98 L248.55 60.89 L248.66 60.76 L248.52 60.75 L248.36 61.12 L248.25 61.12 L248.38 61.04 L248.28 60.93 L248.21 61.34 L248.17 61.18 L248.08 61.28 L248.15 61.61 L248.03 61.36 L247.95 61.57 L247.91 61.5 L247.91 61.92 L247.82 61.8 L247.49 61.92 L247.44 62.5 L247.41 61.95 L247.76 61.75 L247.79 61.54 L247.69 61.55 L247.95 61.24 L247.77 60.95 L247.65 61.04 L247.96 60.71 L247.92 60.6 L247.77 60.86 L247.72 60.74 L247.46 60.88 L247.4 61.47 L247.42 61.12 L247.31 61.06 L247.21 61.28 L247.28 61.54 L247.22 61.35 L247.06 61.37 L247.39 60.8 L247.39 60.47 L247.26 60.38 L247.16 60.92 L246.84 61.17 L246.91 61.38 L246.82 61.25 L246.55 61.72 L246.59 62.0 L246.51 61.85 L246.66 61.33 L247.04 60.86 L247.03 60.72 L246.93 60.8 L247.0 60.6 L246.79 60.81 L246.73 60.72 L247.0 60.56 L246.88 60.22 L247.07 60.23 L247.08 60.12 L246.95 60.11 L247.18 59.98 L247.1 59.68 L246.63 59.9 L246.83 59.97 L246.7 59.97 L246.59 60.17 L246.68 60.21 L246.51 60.29 L246.69 60.29 L246.66 60.48 L246.61 60.38 L246.48 60.44 L246.55 60.62 L246.46 60.41 L246.35 60.52 L246.67 60.96 L246.42 60.83 L246.43 60.66 L246.3 60.57 L246.16 60.91 L246.47 61.01 L246.16 60.95 L246.1 61.21 L246.18 60.61 L246.07 60.4 L245.93 60.68 L245.89 60.58 L245.88 60.78 L245.79 60.54 L245.9 60.24 L245.61 60.42 L245.68 60.87 L245.57 60.8 L245.68 60.8 L245.58 60.58 L245.33 60.6 L245.46 60.69 L245.34 60.85 L245.42 60.68 L245.29 60.68 L245.24 60.87 L245.22 60.73 L245.11 60.82 L245.25 60.69 L245.17 60.42 L245.03 60.58 L245.11 60.46 L244.9 60.53 L244.89 60.67 L244.83 60.51 L244.68 60.65 L244.61 60.34 L244.44 60.49 L244.41 60.36 L244.42 60.57 L244.38 60.47 L244.18 60.52 L244.45 60.29 L244.39 60.11 L244.08 60.31 L243.71 60.17 L243.52 60.39 L243.33 60.4 L243.79 60.11 L243.82 59.92 L243.86 60.1 L244.1 60.05 L244.18 59.85 L244.01 59.86 L244.01 59.71 L244.18 59.69 L244.08 59.56 L244.2 59.6 L244.23 59.46 L243.81 59.14 L243.97 59.44 L243.85 59.6 L243.88 59.47 L243.61 59.23 L243.65 59.47 L243.58 59.31 L243.51 59.53 L243.63 59.81 L243.57 59.74 L243.42 59.91 L243.46 59.58 L243.17 59.32 L243.13 59.79 L243.03 59.52 L242.92 59.93 L242.95 59.3 L242.68 59.47 L242.83 59.14 L242.68 59.03 L242.85 59.03 L242.85 58.86 L242.77 58.89 L242.86 58.76 L242.74 58.65 L242.62 58.69 L242.73 58.72 L242.67 58.88 L242.47 59.01 L242.59 59.14 L242.51 59.28 L242.48 59.14 L242.28 59.24 L242.36 59.61 L242.29 59.49 L242.19 59.66 L242.0 59.53 L241.87 59.66 L241.96 59.79 L241.83 59.83 L241.94 59.76 L241.87 59.59 L242.17 59.45 L241.95 59.33 L242.09 59.32 L242.04 59.15 L242.02 59.26 L241.89 59.25 L242.05 59.03 L241.84 59.01 L242.06 58.67 L241.98 58.48 L241.8 58.49 L241.78 58.89 L241.56 59.01 L241.79 59.33 L241.69 59.21 L241.49 59.23 L241.51 59.14 L241.22 59.44 L241.08 59.41 L241.32 59.14 L241.21 59.11 L241.14 58.79 L241.01 58.79 L241.17 58.67 L240.98 58.63 L241.18 58.3 L240.91 58.31 L240.86 58.79 L240.75 58.68 L240.67 58.78 L240.73 59.1 L240.58 58.84 L240.33 58.85 L240.57 58.79 L240.59 58.26 L240.46 58.28 L240.47 58.52 L240.41 58.42 L240.41 58.54 L240.2 58.46 L240.09 58.55 L240.11 58.25 L240.27 58.34 L240.37 58.25 L240.29 57.98 L240.0 57.9 L240.08 58.06 L239.88 58.24 L239.98 58.06 L239.84 57.98 L239.71 58.1 L239.75 58.0 L239.64 57.99 L239.77 57.96 L239.79 57.79 L239.57 57.67 L239.36 57.78 L239.55 57.86 L239.13 57.81 L239.39 58.12 L239.3 57.96 L239.1 57.92 L239.03 58.1 L239.2 58.29 L238.92 58.04 L238.89 58.33 L238.79 58.08 L238.9 57.95 L238.86 57.64 L238.51 57.67 L238.58 57.78 L238.46 57.84 L238.53 58.35 L239.03 58.76 L239.04 59.12 L239.22 59.28 L238.96 59.14 L238.95 58.82 L238.47 58.81 L238.34 59.14 L238.47 58.67 L238.12 58.23 L238.17 58.09 L237.97 57.97 L237.76 58.0 L237.61 58.34 L237.78 58.37 L237.81 58.74 L237.69 58.61 L237.75 58.49 L237.56 58.4 L237.34 58.63 L237.07 58.69 L237.04 58.83 L237.04 58.69 L236.95 58.83 L236.82 58.75 L236.82 59.16 L236.8 58.71 L237.45 58.4 L237.3 58.39 L237.44 58.19 L237.3 58.13 L237.47 57.92 L237.25 57.61 L237.07 57.69 L236.92 58.09 L236.69 57.99 L236.54 58.21 L236.54 57.87 L236.41 57.91 L236.5 57.73 L236.42 57.67 L236.28 57.86 L236.29 57.68 L236.23 57.89 L236.26 57.78 L236.13 57.78 L236.24 58.17 L236.13 57.94 L236.16 58.23 L236.46 58.4 L236.1 58.2 L236.19 58.69 L235.98 58.21 L235.82 58.4 L235.75 58.23 L235.89 58.18 L235.68 58.04 L235.64 58.13 L235.61 57.99 L235.51 58.15 L235.57 58.03 L235.44 57.93 L235.39 58.1 L235.24 57.99 L235.34 58.23 L235.22 58.13 L235.14 58.3 L235.34 58.76 L235.25 58.79 L235.22 58.46 L235.09 58.38 L235.12 58.78 L235.02 58.45 L234.82 58.77 L234.78 58.2 L234.58 58.15 L233.84 59.0 L234.09 59.36 L233.95 59.64 L234.04 59.76 L233.87 59.63 L233.95 59.46 L233.82 59.51 L233.9 59.35 L233.53 59.27 L232.84 60.17 L232.8 60.47 L233.04 60.53 L232.83 60.54 L232.85 60.65 L233.05 60.7 L233.17 61.05 L233.35 61.0 L232.97 61.15 L232.7 62.15 L232.8 62.35 L232.66 62.54 L232.57 62.55 L232.34 62.02 L232.16 62.35 L231.76 62.36 L231.62 63.57 L231.74 63.69 L232.75 63.48 L233.26 63.52 L233.69 63.74 L233.97 64.06 L234.44 64.08 L234.58 63.87 L234.51 64.16 L233.88 64.16 L233.41 63.74 L233.1 63.67 L232.54 63.69 L231.87 64.08 L231.64 63.94 L231.8 64.51 L232.17 65.02 L232.33 65.04 L232.16 65.1 L232.03 65.0 L231.95 65.22 L231.96 64.89 L231.54 64.62 L231.04 63.81 L231.02 64.04 L230.91 63.66 L230.66 63.88 L230.83 63.47 L230.56 63.11 L230.43 63.41 L230.21 63.53 L230.2 63.64 L230.44 63.74 L230.04 63.83 L229.98 64.04 L229.02 65.04 L228.92 65.5 L228.78 65.44 L228.6 65.75 L228.57 66.15 L228.35 66.15 L228.36 66.29 L228.16 66.18 L228.27 66.49 L228.09 66.53 L228.18 66.41 L228.02 66.22 L227.67 66.2 L227.44 66.45 L227.2 66.34 L227.37 66.62 L227.26 66.85 L227.06 66.44 L226.9 66.53 L226.92 66.98 L226.78 66.73 L226.74 66.94 L226.35 67.29 L226.34 67.41 L226.55 67.41 L226.42 67.39 L226.39 67.6 L226.42 67.41 L226.28 67.49 L225.99 68.31 L225.77 68.36 L225.9 67.93 L225.84 68.16 L225.84 67.99 L225.76 68.17 L225.67 68.12 L225.4 68.82 L225.32 68.74 L225.31 68.87 L225.28 68.78 L225.2 68.85 L225.05 69.34 L225.11 69.57 L224.94 69.79 L224.91 69.65 L224.72 69.73 L224.8 69.49 L224.63 69.72 L224.8 69.1 L224.72 69.02 L225.15 68.44 L225.31 67.99 L225.25 67.41 L225.31 67.49 L225.59 67.22 L225.31 67.18 L225.6 66.78 L225.6 66.57 L225.44 66.44 L225.69 66.41 L226.31 65.92 L226.33 65.78 L226.13 65.68 L226.37 65.7 L226.31 65.36 L225.69 65.51 L225.5 65.75 L225.73 65.95 L225.42 65.76 L225.33 65.9 L225.15 65.88 L225.01 65.72 L224.79 65.95 L224.76 65.72 L224.54 66.14 L224.59 66.3 L224.45 66.37 L224.48 66.19 L223.93 66.26 L223.77 66.45 L223.81 66.7 L223.3 66.6 L223.26 66.81 L223.15 66.54 L222.46 66.62 L222.45 67.28 L222.31 66.47 L222.21 66.39 L222.06 66.5 L222.08 66.29 L221.51 65.99 L220.71 66.15 L220.39 66.34 L220.29 66.64 L220.36 66.8 L220.0 66.52 L219.6 66.45 L219.26 66.59 L218.91 66.94 L218.51 66.92 L218.28 66.66 L218.7 66.26 L218.62 66.12 L219.33 66.01 L219.4 65.73 L219.72 65.47 L220.08 65.56 L220.22 65.82 L221.04 65.29 L221.31 65.6 L221.69 65.51 L222.77 66.01 L223.23 65.69 L223.27 65.37 L223.08 64.97 L223.18 64.61 L223.12 64.9 L223.33 65.59 L223.49 65.62 L223.53 65.78 L224.07 65.37 L224.5 65.36 L224.5 65.1 L224.39 65.11 L224.54 64.98 L224.41 64.9 L224.68 64.73 L224.51 64.61 L224.71 64.69 L224.8 64.59 L224.51 64.35 L224.84 64.46 L224.68 63.89 L224.86 63.91 L224.92 64.39 L225.49 64.02 L225.65 64.37 L225.81 64.44 L225.8 63.87 L225.87 64.15 L226.4 64.65 L226.59 64.45 L226.43 63.76 L226.54 63.8 L226.7 64.44 L227.03 64.41 L226.94 64.17 L227.12 64.35 L227.48 64.24 L227.64 64.31 L227.6 64.11 L227.4 64.0 L227.56 64.03 L227.38 63.68 L227.16 63.56 L227.29 63.54 L227.11 63.32 L227.18 63.23 L227.55 63.96 L227.82 64.16 L228.92 63.83 L229.33 63.42 L228.88 63.14 L228.69 62.78 L228.43 63.18 L228.37 63.01 L228.48 62.9 L228.32 62.82 L228.75 62.65 L228.3 62.45 L228.31 62.14 L228.36 62.39 L228.61 62.48 L228.91 62.13 L229.32 62.23 L229.37 61.93 L229.04 61.83 L228.75 61.35 L229.11 61.76 L229.47 61.87 L230.75 60.88 L230.8 60.68 L230.62 60.67 L230.79 60.6 L230.7 60.44 L230.76 60.08 L231.22 59.96 L231.53 59.63 L231.36 59.1 L231.5 58.78 L231.3 58.54 L231.66 58.65 L231.74 57.08 L232.03 56.42 L232.33 56.09 L232.35 55.67 L232.23 55.41 L231.82 55.23 L230.77 55.21 L230.2 55.38 L229.41 55.14 L228.84 55.31 L228.18 54.81 L227.41 54.85 L226.94 54.57 L226.58 54.79 L226.12 54.76 L225.47 55.05 L225.41 55.17 L225.57 55.35 L225.29 55.14 L223.93 55.33 L222.91 55.03 L222.5 55.05 L221.46 54.78 L221.19 54.83 L220.78 54.65 L219.5 54.44 L219.33 54.51 L219.19 54.32 L218.94 54.45 L218.79 54.9 L219.01 55.46 L218.85 55.15 L218.71 55.11 L218.71 54.79 L218.18 54.79 L217.94 55.02 L218.04 55.18 L217.75 55.03 L216.99 55.65 L216.71 56.13 L216.82 56.43 L216.76 56.67 L216.9 56.68 L216.81 56.83 L216.95 56.99 L217.0 56.89 L217.13 56.95 L216.55 57.18 L216.62 57.35 L216.96 57.3 L217.26 57.04 L217.5 57.08 L217.08 57.32 L217.44 57.35 L217.52 57.62 L217.79 57.6 L217.76 57.82 L217.54 57.92 L217.53 58.06 L217.77 58.23 L217.58 58.26 L217.49 58.54 L217.49 58.25 L216.87 58.06 L216.84 58.34 L217.02 58.77 L216.76 58.46 L216.65 58.59 L216.62 58.49 L216.16 58.53 L216.15 58.93 L216.4 59.03 L216.55 59.47 L216.17 59.1 L216.05 60.58 L215.93 60.44 L215.96 59.9 L215.55 59.88 L215.93 59.62 L215.85 59.25 L215.28 59.45 L215.5 59.25 L215.73 59.25 L215.7 58.85 L215.53 58.98 L215.73 58.68 L215.09 58.67 L214.82 59.13 L214.85 58.83 L215.09 58.57 L215.54 58.54 L215.83 58.37 L215.88 57.4 L215.05 57.61 L214.6 58.15 L214.35 58.28 L214.4 58.19 L214.3 58.2 L213.99 58.64 L213.92 59.15 L214.04 59.33 L214.47 59.07 L213.97 59.36 L213.76 59.67 L213.69 60.24 L214.3 59.65 L214.73 59.54 L214.05 59.91 L213.55 60.41 L213.46 60.34 L213.45 59.44 L213.09 60.41 L213.13 59.36 L213.53 58.4 L213.39 58.52 L213.24 58.43 L213.39 58.49 L213.57 58.35 L213.71 57.96 L213.36 57.7 L213.35 57.52 L213.27 57.66 L213.35 57.5 L213.25 57.34 L212.91 57.19 L212.89 57.28 L212.8 57.14 L212.42 57.31 L212.48 57.55 L212.38 57.54 L212.39 57.32 L212.52 57.21 L211.9 57.36 L210.73 58.25 L210.72 58.17 L210.54 58.62 L210.55 58.99 L210.25 59.43 L210.22 60.28 L210.14 60.41 L210.01 60.38 L209.94 59.12 L209.83 59.2 L210.01 58.74 L211.11 57.38 L210.97 57.35 L211.01 57.25 L211.29 57.28 L211.14 57.13 L211.35 57.22 L211.73 56.88 L211.8 56.54 L211.65 56.77 L211.62 56.67 L212.09 56.27 L212.34 55.76 L212.42 55.47 L212.2 55.37 L212.46 55.45 L212.98 54.69 L213.01 54.58 L212.87 54.57 L213.25 54.32 L212.93 54.35 L212.64 54.21 L212.9 54.3 L213.3 54.22 L213.36 53.97 L213.63 54.13 L214.15 54.03 L214.53 53.01 L215.22 52.53 L216.23 52.38 L216.29 52.13 L216.31 52.21 L216.52 52.04 L216.72 51.65 L217.6 50.82 L218.3 49.41 L219.26 48.74 L219.6 47.84 L219.48 47.35 L219.48 47.59 L219.66 47.82 L220.69 47.19 L221.3 46.41 L221.21 46.14 L221.41 46.46 L221.8 46.28 L222.16 45.57 L222.06 45.18 L221.53 45.5 L220.68 45.57 L220.55 45.46 L221.42 45.35 L222.02 44.9 L222.19 44.48 L222.27 43.68 L222.05 42.34 L221.76 42.27 L222.01 42.22 L221.85 42.03 L221.31 41.69 L220.3 41.35 L218.41 41.39 L218.09 41.09 L217.99 41.13 L218.07 41.07 L217.93 40.58 L217.5 40.22 L217.46 39.72 L217.27 39.45 L216.91 39.21 L216.31 39.45 L216.5 39.14 L216.65 39.23 L216.85 39.13 L216.85 38.84 L216.59 38.56 L216.58 38.19 L216.33 37.69 L216.3 37.08 L216.14 36.77 L215.96 36.69 L215.69 36.82 L215.86 36.51 L215.8 35.8 L215.53 35.48 L215.4 34.74 L215.09 34.66 L215.1 34.12 L214.85 33.77 L214.83 33.4 L214.65 33.11 L214.71 32.85 L214.5 32.53 L214.58 32.02 L214.13 30.38 L214.26 30.11 L214.12 28.81 L214.22 27.39 L213.88 27.23 L213.65 27.67 L213.4 28.87 L213.5 29.77 L213.42 30.51 L213.48 29.56 L213.35 28.86 L213.54 26.9 L213.45 26.05 L213.09 25.37 L212.52 24.71 L211.27 23.66 L211.03 23.73 L210.86 24.27 L211.14 25.7 L210.9 25.08 L210.73 25.03 L210.71 25.35 L210.31 26.26 L209.7 26.61 L209.49 26.88 L209.36 27.4 L208.9 27.89 L208.56 28.07 L208.55 28.44 L208.26 28.51 L208.09 29.12 L207.39 30.07 L206.73 31.32 L206.43 31.73 L206.26 31.64 L206.05 31.81 L205.99 32.18 L205.77 32.21 L205.63 32.53 L205.8 32.86 L205.36 33.73 L205.46 33.96 L205.17 34.1 L204.44 35.73 L204.28 35.79 L204.46 36.19 L204.23 36.41 L204.29 36.61 L203.82 36.96 L203.89 37.09 L203.66 37.21 L203.56 37.6 L202.22 38.23 L202.27 38.32 L202.02 38.54 L201.91 38.87 L201.7 38.83 L201.33 39.02 L200.98 38.95 L200.64 38.68 L199.84 38.82 L199.64 38.72 L199.38 38.87 L199.52 38.44 L199.74 38.33 L199.52 38.28 L199.11 37.8 L198.88 37.77 L198.79 38.0 L198.31 38.25 L198.12 38.19 L198.18 38.39 L197.68 38.42 L197.24 38.22 L196.87 38.24 L196.88 38.11 L196.63 38.14 L196.6 38.03 L196.24 38.04 L196.41 37.76 L196.09 37.58 L195.64 37.88 L195.77 38.02 L195.32 38.04 L195.17 38.37 L194.98 38.22 L194.93 38.65 L194.5 38.76 L194.4 38.9 L194.09 38.79 L193.84 39.4 L193.47 39.32 L193.27 38.92 L193.01 39.12 L192.22 39.11 L192.24 38.99 L192.07 38.89 L192.1 38.7 L191.5 38.76 L191.32 38.7 L191.16 38.43 L190.83 38.31 L191.07 38.23 L190.87 37.92 L189.85 37.92 L189.78 37.82 L189.88 37.7 L189.69 37.6 L189.76 37.38 L189.93 37.33 L189.85 36.98 L189.4 36.98 L189.36 36.89 L189.34 37.06 L189.04 37.27 L188.64 37.21 L188.62 36.97 L188.3 36.78 L187.99 36.35 L188.09 36.17 L188.24 36.16 L188.18 35.88 L188.01 36.08 L187.7 36.16 L187.28 36.6 L187.14 36.53 L186.98 36.66 L186.97 36.28 L186.81 36.34 L186.79 36.25 L186.52 36.38 L186.55 36.55 L186.38 36.62 L186.45 36.73 L186.23 36.68 L186.12 36.87 L185.92 36.63 L185.66 36.57 L185.43 36.75 L185.42 36.95 L185.33 36.89 L185.47 37.1 L185.28 37.38 L185.06 37.33 L185.05 37.15 L184.64 37.14 L182.83 37.41 L182.6 37.21 L182.6 37.03 L182.14 37.02 L181.66 36.64 L181.35 36.56 L181.14 36.65 L181.07 36.78 L181.17 36.87 L180.93 37.08 L181.1 37.26 L180.79 37.65 L180.87 37.85 L180.65 37.86 L180.42 37.65 L180.39 37.96 L180.09 38.35 L180.74 38.6 L180.8 38.71 L180.68 38.9 L181.07 39.02 L181.25 39.54 L181.39 39.51 L181.67 39.87 L181.47 40.23 L181.71 40.86 L181.32 41.17 L180.34 41.16 L179.89 40.79 L179.47 40.79 L179.38 40.94 L178.8 40.57 L178.39 40.68 L178.02 40.45 L177.14 40.79 L176.86 40.53 L176.63 40.74 L176.18 40.66 L175.72 41.17 L175.46 40.91 L174.96 40.83 L174.87 40.63 L174.47 40.71 L174.51 40.8 L174.23 40.74 L173.89 40.49 L173.65 40.05 L172.65 40.57 L172.17 40.28 L171.38 40.87 L170.56 42.25 L170.0 42.29 L169.11 42.11 L168.74 42.38 L168.02 42.63 L167.66 42.51 L167.57 43.32 L167.38 43.51 L166.63 43.51 L166.52 43.16 L165.57 43.09 L165.38 42.88 L165.21 43.18 L165.0 43.25 L165.03 43.57 L164.92 43.75 L164.18 43.88 L164.17 44.13 L164.43 44.65 L164.2 45.11 L164.09 45.08 L164.04 45.2 L163.91 44.97 L163.75 44.94 L163.61 45.15 L162.87 44.93 L162.58 45.57 L162.01 45.79 L161.98 45.67 L161.83 45.72 L161.64 45.42 L161.43 45.34 L161.57 45.17 L161.35 45.0 L161.36 44.81 L160.95 44.9 L160.86 44.73 L159.8 44.58 L158.94 44.17 L158.89 43.88 L158.62 43.78 L158.6 43.46 L158.25 43.5 L158.17 43.19 L157.94 43.11 L157.82 42.74 L157.52 42.63 L157.24 42.06 L156.93 41.95 L156.67 42.07 L156.18 41.8 L156.25 41.48 L156.41 41.41 L156.37 41.06 L156.3 41.25 L155.76 41.07 L155.97 39.96 L155.82 39.66 L155.96 39.46 L155.83 39.03 L155.97 38.26 L155.85 38.16 L155.54 38.21 L154.73 37.59 L154.82 36.99 L154.52 36.41 L154.57 36.28 L154.29 36.12 L154.38 36.01 L154.16 35.49 L154.19 33.97 L154.46 33.41 L154.35 33.26 L154.4 32.78 L154.63 32.56 L154.73 32.6 L154.64 32.5 L154.71 32.38 L154.62 32.39 L154.77 32.32 L154.71 31.94 L154.95 31.85 L154.86 31.72 L155.26 31.13 L155.21 30.98 L155.41 30.93 L155.36 30.47 L155.17 30.44 L155.43 29.97 L154.97 29.56 L155.11 29.28 L155.68 29.13 L156.33 28.6 L156.34 28.08 L156.82 27.99 L156.81 27.85 L156.94 27.85 L156.85 27.38 L157.37 26.97 L157.16 26.75 L156.9 26.82 L156.93 26.58 L156.75 26.55 L156.68 26.26 L156.44 26.15 L156.67 25.71 L156.14 25.57 L155.9 25.38 L155.86 25.0 L156.05 24.81 L155.9 24.67 L156.11 24.52 L156.32 24.06 L155.47 23.57 L155.49 23.46 L155.37 23.58 L155.02 23.54 L154.94 23.31 L154.69 23.48 L154.54 23.23 L154.3 23.16 L154.29 23.37 L153.64 23.26 L153.66 23.08 L153.52 23.1 L153.5 22.99 L153.29 23.21 L153.02 23.11 L153.05 22.7 L153.18 22.77 L153.27 22.5 L153.63 22.44 L153.59 22.14 L153.93 21.83 L153.86 21.18 L154.04 20.77 L154.29 19.36 L153.49 18.9 L153.36 18.43 L153.13 18.28 L152.87 18.3 L152.71 18.0 L151.98 18.46 L151.48 18.37 L151.14 18.63 L151.03 18.48 L150.28 18.55 L150.11 18.37 L149.85 18.4 L149.72 18.28 L149.18 18.36 L149.13 18.48 L149.55 18.57 L149.66 19.08 L149.76 19.08 L149.74 19.48 L149.98 19.62 L149.93 19.79 L150.13 19.99 L150.11 20.33 L149.67 20.64 L149.66 20.86 L149.02 21.51 L148.65 21.55 L148.35 21.85 L148.01 21.75 L147.9 22.11 L147.68 22.25 L147.8 22.65 L147.64 22.66 L147.64 22.91 L147.46 22.93 L147.38 23.1 L146.72 23.06 L146.65 23.22 L146.5 23.19 L146.36 23.35 L145.89 22.99 L145.91 23.1 L145.61 22.97 L145.18 22.99 L145.18 23.2 L145.48 23.44 L145.24 23.52 L145.04 23.78 L144.38 23.73 L144.31 23.63 L143.89 23.87 L143.82 24.32 L143.94 24.45 L143.59 24.9 L143.38 24.96 L143.25 24.84 L143.06 25.0 L142.86 24.82 L142.47 24.95 L142.46 24.79 L142.13 24.93 L142.17 25.07 L141.96 25.08 L141.82 25.25 L141.85 25.48 L141.51 25.41 L141.47 25.59 L141.14 25.53 L141.09 25.81 L140.69 25.39 L140.45 25.58 L140.13 25.55 L140.13 25.77 L139.82 25.81 L139.87 25.98 L139.62 26.09 L139.29 25.84 L138.66 25.65 L138.38 25.69 L138.17 25.44 L137.66 25.36 L137.47 25.41 L137.43 25.69 L137.21 25.61 L137.18 25.72 L136.99 25.69 L136.86 26.08 L136.97 26.06 L137.02 26.29 L136.83 26.35 L136.87 26.49 L136.31 26.27 L135.56 26.38 L135.44 26.6 L135.58 26.8 L135.33 27.05 L135.3 27.33 L135.52 27.56 L135.4 27.72 L135.71 27.92 L135.61 28.04 L135.69 28.6 L135.6 28.81 L135.22 28.45 L134.97 28.38 L134.62 28.78 L134.4 28.8 L134.21 29.23 L133.93 29.19 L133.68 28.85 L133.38 28.72 L133.47 28.36 L133.23 28.02 L132.5 27.89 L132.33 27.72 L132.41 27.16 L131.83 27.14 L131.23 26.75 L130.97 26.77 L130.83 26.9 L131.06 27.05 L131.08 27.27 L130.83 27.56 L130.61 27.38 L130.47 27.52 L130.51 27.68 L130.16 27.53 L130.13 27.35 L129.89 27.39 L129.91 27.15 L129.3 26.47 L129.15 26.98 L129.41 27.13 L129.27 27.23 L128.93 27.19 L128.78 27.0 L128.14 26.94 L127.63 27.1 L127.36 27.49 L127.01 26.8 L126.82 26.87 L126.23 25.88 L125.94 25.97 L125.35 25.59 L124.88 25.75 L124.83 25.62 L124.29 25.63 L124.19 25.82 L123.93 25.65 L123.34 25.91 L123.01 25.85 L122.87 25.8 L122.83 25.52 L122.65 25.48 L122.54 25.21 L122.37 25.2 L122.36 24.96 L122.06 24.75 L121.73 24.71 L121.54 25.28 L121.79 25.35 L121.65 25.57 L121.85 25.57 L122.03 26.26 L122.5 26.19 L122.63 26.81 L122.98 26.8 L122.99 27.0 L123.42 27.11 L123.32 27.28 L123.39 27.5 L123.54 27.46 L123.69 27.7 L123.92 27.71 L124.05 28.08 L124.34 28.08 L124.88 28.57 L125.0 28.54 L125.09 28.89 L125.35 28.97 L125.49 28.88 L125.45 29.08 L125.64 29.1 L125.65 29.31 L125.81 29.26 L125.79 29.43 L125.99 29.64 L125.86 29.8 L125.95 29.96 L126.34 30.19 L126.33 30.64 L126.13 30.84 L126.37 31.1 L126.35 31.49 L126.07 31.71 L125.92 32.25 L125.58 32.44 L125.65 32.75 L126.17 33.14 L126.05 33.48 L126.41 33.5 L126.41 33.68 L126.66 33.88 L126.59 34.21 L126.98 34.55 L127.03 34.89 L127.16 34.94 L127.12 35.13 L127.27 35.24 L127.09 35.35 L127.23 35.48 L127.23 35.76 L126.96 36.22 L126.83 36.23 L126.73 36.76 L126.99 37.0 L127.14 36.89 L127.58 37.05 L128.15 36.79 L128.33 36.8 L128.38 36.94 L128.51 36.89 L128.7 37.15 L129.17 37.02 L129.26 37.15 L129.61 37.16 L129.89 37.04 L130.12 37.08 L130.14 37.28 L130.65 37.2 L130.75 37.42 L131.09 37.06 L131.17 37.23 L131.43 37.3 L131.48 37.52 L131.34 37.69 L131.45 38.07 L131.4 38.5 L131.28 38.53 L131.37 38.71 L131.19 38.8 L131.23 39.12 L130.94 39.3 L130.69 39.17 L130.55 39.38 L130.2 39.22 L129.82 39.33 L129.58 39.65 L129.4 39.69 L129.39 40.01 L129.15 39.8 L128.59 40.26 L128.33 40.16 L128.27 40.36 L127.86 40.18 L127.18 40.25 L127.11 40.42 L126.72 40.64 L126.67 41.15 L126.8 41.34 L126.62 41.61 L126.72 42.14 L126.63 42.53 L126.29 42.99 L125.96 43.03 L125.81 43.38 L125.38 43.5 L125.36 43.63 L125.02 43.81 L124.86 44.46 L124.73 44.27 L124.37 44.17 L124.8 43.5 L124.77 43.32 L124.48 43.32 L124.2 43.72 L123.99 43.69 L123.37 44.11 L123.23 44.6 L123.02 44.61 L122.79 44.87 L122.45 44.97 L122.12 45.37 L121.83 45.12 L121.73 44.77 L121.36 45.06 L121.27 45.37 L121.03 45.2 L120.92 45.42 L120.65 45.45 L120.31 46.16 L119.98 46.15 L119.98 45.93 L119.68 45.84 L119.51 46.04 L119.31 46.07 L119.34 46.56 L119.21 46.79 L119.39 46.89 L119.06 47.49 L118.96 47.56 L118.91 47.37 L118.71 47.46 L118.55 47.31 L118.19 47.33 L118.0 47.81 L117.62 48.09 L117.76 48.54 L117.57 48.58 L117.4 49.0 L116.82 49.14 L116.75 49.28 L116.31 48.87 L116.84 48.07 L117.0 48.02 L117.05 47.74 L116.94 47.7 L116.94 47.44 L116.73 47.1 L116.59 47.1 L116.64 46.96 L116.45 47.03 L116.43 46.87 L116.17 46.8 L116.16 46.98 L115.96 46.81 L115.79 46.99 L115.7 46.87 L115.39 46.89 L115.19 47.18 L114.44 47.29 L114.39 47.54 L114.05 47.64 L113.88 48.15 L113.18 48.17 L113.14 48.51 L112.68 48.61 L112.33 48.38 L111.56 48.63 L107.96 45.36 L106.31 45.77 L106.24 45.15 L105.85 44.72 L105.92 44.52 L106.17 44.62 L106.42 44.39 L106.33 44.09 L106.4 43.68 L106.19 43.49 L106.23 42.96 L105.93 42.8 L106.03 42.54 L105.9 41.83 L106.0 41.55 L105.66 41.37 L105.73 41.21 L105.5 41.09 L105.43 40.65 L105.27 40.57 L105.07 40.66 L105.05 40.53 L104.81 40.63 L104.72 40.53 L104.48 39.63 L104.61 39.26 L104.36 39.12 L104.49 38.95 L104.46 38.65 L104.25 38.56 L103.89 38.68 L103.74 39.0 L103.0 39.07 L102.96 39.66 L102.83 39.86 L102.51 39.93 L102.46 40.13 L101.7 39.89 L101.7 40.05 L101.27 40.57 L101.06 40.65 L101.05 40.8 L100.7 40.86 L100.79 41.05 L100.68 41.11 L100.7 41.35 L100.82 41.45 L100.58 41.35 L100.21 41.4 L100.12 41.24 L99.93 41.39 L99.76 40.86 L99.52 40.81 L99.23 40.33 L98.99 40.34 L98.83 39.87 L98.75 40.36 L98.25 41.29 L98.65 41.29 L98.56 41.69 L98.88 41.62 L98.98 41.72 L98.87 41.91 L99.03 41.87 L99.08 41.98 L90.8 41.98 L89.74 41.65 L89.03 42.05 L88.57 41.93 L88.13 42.21 L87.77 42.04 L87.74 46.38 L88.0 46.47 L88.22 46.2 L88.69 46.1 L88.69 46.39 L88.86 46.43 L89.33 46.24 L89.64 46.42 L90.48 46.4 L90.65 46.64 L90.91 46.33 L91.29 46.31 L91.5 46.54 L91.78 46.52 L92.1 46.89 L91.97 47.08 L92.32 47.3 L92.15 47.47 L92.52 47.74 L92.48 47.93 L92.31 47.95 L92.45 48.47 L92.16 48.66 L92.66 49.33 L92.15 49.26 L92.09 49.56 L91.6 49.6 L91.44 49.57 L91.45 49.27 L91.29 49.43 L91.17 49.32 L91.05 49.51 L90.29 48.69 L89.86 48.9 L89.83 49.07 L89.64 49.04 L89.41 49.25 L89.48 49.33 L89.35 49.38 L89.36 49.52 L88.91 49.15 L88.61 49.33 L88.56 49.51 L88.39 49.48 L88.03 49.8 L87.89 49.67 L87.65 49.76 L87.25 49.68 L87.13 49.93 L86.87 49.76 L86.71 49.77 L86.58 49.98 L86.4 49.85 L86.4 54.51 L86.26 54.79 L87.24 55.88 L87.78 55.98 L87.85 56.19 L88.21 56.31 L88.56 56.69 L89.32 57.04 L89.3 57.28 L89.45 57.44 L89.37 57.69 L89.65 57.97 L89.22 58.71 L89.67 59.18 L89.58 59.34 L89.89 59.54 L89.88 59.92 L90.32 60.2 L90.34 60.39 L90.62 60.42 L90.44 60.61 L90.62 60.73 L90.52 60.91 L90.77 61.26 L90.54 61.94 L90.76 62.88 L90.49 63.12 L90.35 63.63 L87.51 80.18 L87.15 82.21 L87.02 82.41 L87.04 82.79 L86.43 83.27 L86.4 82.97 L86.16 82.83 L86.41 82.7 L86.05 82.68 L85.95 82.46 L85.88 82.66 L85.64 82.58 L85.54 82.79 L85.67 82.95 L85.38 83.17 L85.25 82.74 L85.2 82.87 L84.89 82.75 L85.03 82.57 L84.73 82.67 L84.79 82.58 L84.61 82.41 L84.82 82.29 L84.77 81.86 L84.53 81.69 L84.39 81.93 L84.15 81.63 L83.78 81.61 L83.78 81.82 L83.57 81.92 L83.41 81.83 L83.29 82.07 L83.28 81.73 L82.99 81.64 L83.06 81.78 L82.84 82.15 L82.9 81.89 L82.58 82.01 L82.42 81.91 L82.52 81.56 L82.35 81.58 L82.32 81.83 L82.19 81.68 L82.12 82.11 L81.61 81.78 L81.0 82.2 L81.21 82.24 L81.11 82.42 L80.9 82.4 L81.01 82.59 L80.8 82.68 L80.82 82.87 L80.64 82.91 L80.54 83.15 L80.41 83.12 L80.39 83.31 L80.19 83.29 L80.01 83.04 L80.01 83.32 L79.67 83.43 L79.62 83.21 L79.43 83.4 L79.37 83.24 L79.16 83.49 L78.96 83.3 L78.93 83.46 L78.74 83.39 L78.65 83.59 L78.6 83.29 L78.46 83.48 L78.42 83.33 L78.16 83.32 L78.07 83.41 L78.2 83.39 L78.2 83.62 L78.1 83.7 L77.81 83.54 L77.93 83.72 L77.87 83.86 L77.63 83.61 L77.31 83.62 L77.04 83.95 L77.04 83.77 L77.18 83.67 L77.01 83.62 L77.0 83.77 L76.93 83.65 L76.74 83.66 L76.7 83.82 L76.54 83.68 L76.63 84.01 L76.33 83.86 L76.35 83.99 L76.2 83.95 L76.24 84.03 L75.92 84.3 L75.68 84.18 L75.82 83.89 L75.6 84.13 L75.54 83.91 L75.51 84.13 L75.2 84.18 L74.99 84.09 L74.9 83.89 L74.8 84.13 L74.65 83.99 L74.67 84.09 L74.61 84.0 L74.52 84.14 L74.35 84.08 L74.36 84.21 L74.3 84.14 L74.12 84.29 L73.84 84.21 L74.0 84.35 L73.76 84.31 L73.76 84.54 L73.55 84.65 L73.58 84.83 L73.26 84.84 L73.34 84.96 L73.18 85.09 L72.94 84.94 L72.92 85.14 L72.76 85.19 L72.82 85.29 L72.73 85.21 L72.38 85.7 L72.27 85.54 L71.91 85.78 L71.91 85.9 L71.81 85.78 L71.58 86.02 L71.49 85.91 L71.51 86.08 L71.39 86.13 L71.33 85.94 L71.15 86.08 L71.12 85.96 L71.01 86.0 L71.04 86.22 L70.94 86.09 L70.71 86.17 L70.8 86.3 L70.59 86.37 L70.69 86.4 L70.64 86.64 L70.5 86.74 L70.36 86.67 L70.42 86.82 L70.29 86.89 L70.05 86.75 L70.18 86.91 L69.96 87.17 L69.94 87.05 L69.86 87.15 L69.7 87.04 L69.7 87.23 L69.5 87.19 L69.28 87.48 L69.22 87.38 L69.11 87.45 L69.03 87.84 L68.98 87.74 L68.9 87.91 L68.89 87.79 L68.79 87.92 L68.7 87.81 L68.31 87.84 L68.23 88.09 L68.12 88.01 L67.92 88.26 L67.71 88.18 L67.72 88.43 L67.48 88.41 L67.24 88.59 L67.28 88.75 L67.36 88.69 L67.42 89.33 L66.76 90.63 L66.74 91.03 L66.79 91.18 L66.89 91.16 L66.64 91.69 L66.75 91.94 L66.57 91.97 L66.48 92.42 L66.29 92.45 L66.12 92.87 L65.71 93.13 L65.7 93.34 L65.45 93.36 L65.22 93.88 L65.22 94.3 L64.88 94.5 L64.94 94.79 L64.8 94.99 L64.81 95.27 L65.02 95.5 L64.99 95.75 L65.39 96.13 L65.56 96.83 L65.78 97.04 L65.66 97.18 L65.73 97.33 L65.51 97.58 L65.58 97.69 L65.38 97.85 L65.21 97.79 L65.29 97.89 L65.13 97.96 L65.09 98.16 L64.93 98.13 L64.95 98.24 L64.1 98.27 L63.84 98.6 L62.85 98.89 L62.7 99.14 L62.17 99.36 L61.99 99.71 L61.69 99.94 L61.35 100.59 L61.47 100.78 L61.35 100.87 L61.36 101.4 L61.09 101.82 L61.47 102.51 L61.65 102.56 L61.79 103.13 L61.4 103.42 L61.34 103.3 L60.93 103.32 L60.72 103.42 L60.66 103.66 L60.38 103.63 L60.27 103.47 L60.18 103.58 L60.07 103.44 L60.35 104.23 L60.13 104.63 L59.86 104.71 L60.5 105.11 L60.41 105.35 L60.64 105.6 L60.81 105.53 L60.96 105.87 L61.65 106.04 L61.9 106.31 L61.91 106.83 L61.53 106.97 L61.32 106.86 L61.39 107.07 L61.27 107.17 L61.5 107.32 L61.44 107.44 L61.58 107.56 L61.72 107.48 L61.98 107.88 L62.17 107.83 L62.33 108.02 L62.24 108.17 L62.56 108.69 L62.47 108.9 L62.63 109.3 L62.52 109.41 L62.95 109.6 L62.86 109.77 L62.95 109.96 L62.82 110.15 L63.32 110.43 L63.49 110.68 L63.74 110.7 L63.87 110.97 L64.25 110.99 L64.2 111.99 L64.33 111.92 L64.76 112.46 L65.36 112.51 L65.71 113.09 L65.72 113.33 L65.96 113.48 L66.08 113.92 L66.48 113.99 L66.68 114.41 L66.87 114.45 L66.77 114.6 L66.89 115.03 L66.77 115.54 L66.3 115.76 L66.46 115.88 L66.42 116.06 L65.97 116.15 L65.75 116.42 L65.8 116.64 L65.6 116.7 L65.48 116.95 L65.22 117.0 L65.1 117.31 L68.39 117.34 L68.53 117.53 L69.34 117.64 L69.71 117.88 L70.47 117.78 L70.81 117.9 L71.08 118.24 L71.31 118.2 L71.27 118.63 L71.52 118.73 L71.45 119.64 L72.2 119.95 L72.12 120.17 L72.3 120.49 L72.04 120.85 L72.21 121.1 L72.0 121.32 L77.43 121.32 L77.64 121.09 L77.95 121.27 L78.26 121.16 L78.25 121.07 L78.55 121.09 L78.9 120.45 L79.61 120.07 L80.0 120.08 L80.2 119.62 L80.47 119.57 L80.84 119.05 L81.35 118.87 L81.4 118.71 L81.6 118.64 L81.64 118.34 L81.79 118.41 L82.23 118.12 L82.68 117.54 L83.36 117.43 L83.3 117.68 L83.16 117.66 L83.29 117.97 L83.22 117.89 L83.04 118.02 L83.05 118.19 L82.85 118.15 L82.96 118.42 L82.73 118.39 L82.72 118.26 L82.65 118.33 L82.75 118.89 L83.16 119.39 L83.08 119.73 L82.95 119.89 L82.8 119.81 L82.49 120.1 L82.51 128.08 L83.2 127.64 L83.65 128.06 L83.74 128.34 L84.62 128.56 L85.63 128.37 L86.06 127.99 L86.26 128.04 L87.14 127.55 L88.26 127.61 L88.44 127.91 L88.59 127.92 L88.99 127.76 L89.32 127.8 L89.39 127.69 L89.76 127.76 L89.89 127.64 L90.21 127.77 L90.62 127.58 L90.9 127.77 L91.04 127.65 L91.59 127.77 L91.87 127.67 L91.99 127.79 L92.62 127.85 L92.63 127.95 L92.94 127.85 L93.43 128.14 L93.66 127.99 L94.05 128.22 L94.14 128.11 L94.38 128.19 L94.46 128.03 L94.6 128.12 L94.84 128.01 L94.86 128.17 L95.07 128.08 L95.02 128.53 L95.3 128.78 L95.35 129.08 L96.52 128.82 L96.89 128.43 L97.28 128.3 L97.45 128.44 L97.58 128.21 L97.95 128.17 L98.6 127.76 L98.85 127.13 L99.48 126.56 L99.46 126.16 L99.96 125.75 L100.34 125.8 L101.09 125.65 L101.81 125.95 L101.96 126.14 L102.14 126.12 L102.36 125.41 L102.58 125.39 L103.09 124.7 L103.98 124.34 L104.13 124.2 L104.06 123.96 L104.17 123.84 L104.55 123.97 L104.6 123.86 L104.82 123.87 L104.75 123.49 L105.15 123.57 L105.4 123.45 L105.76 123.6 L106.05 123.45 L105.97 123.4 L106.07 123.28 L106.82 123.06 L107.0 122.81 L106.94 122.67 L107.22 122.6 L107.28 122.39 L107.51 122.31 L107.47 122.2 L107.77 122.0 L107.76 121.87 L108.01 121.88 L108.02 121.73 L108.5 121.31 L109.1 121.09 L109.18 120.89 L109.36 120.98 L109.48 120.6 L109.73 120.68 L109.87 120.51 L110.58 120.51 L110.72 120.41 L110.83 120.63 L110.94 120.39 L111.23 120.41 L111.29 120.24 L111.73 120.27 L112.05 120.06 L112.28 120.2 L112.4 120.12 L112.34 120.01 L112.62 119.87 L112.98 119.86 L113.03 120.06 L113.18 119.86 L113.42 119.88 L113.49 120.05 L113.66 119.93 L113.88 120.0 L113.84 119.8 L114.17 119.65 L114.3 119.74 L114.52 119.65 L114.59 119.93 L115.0 119.67 L114.92 119.77 L115.04 119.91 L115.17 119.52 L115.38 119.84 L115.48 119.69 L115.77 119.62 L115.78 119.76 L115.62 119.74 L115.61 120.01 L115.75 120.05 L115.89 119.84 L116.05 119.93 L116.01 120.07 L116.11 120.0 L116.15 120.2 L116.34 120.13 L116.37 120.25 L116.63 120.27 L116.59 120.03 L116.81 119.84 L117.01 119.87 L117.02 119.49 L117.41 119.24 L117.38 119.08 L117.73 119.19 L118.01 119.45 L118.23 120.06 L118.46 120.23 L118.15 120.9 L118.17 121.68 L118.37 122.0 L118.33 122.43 L118.45 122.81 L118.21 123.36 L117.75 123.85 L117.84 124.13 L117.76 124.35 L117.5 124.55 L117.72 125.26 L117.59 125.5 L118.04 125.87 L118.0 126.64 L118.53 127.2 L118.55 127.71 L118.71 128.0 L118.36 128.3 L118.48 128.69 L117.95 129.02 L118.05 129.37 L118.25 129.42 L117.99 129.55 L117.96 129.77 L118.09 130.19 L118.43 130.28 L118.13 130.48 L118.32 131.45 L118.96 131.64 L118.81 131.94 L118.93 132.49 L118.65 132.89 L119.17 133.2 L119.16 132.97 L119.8 132.88 L119.99 133.43 L119.92 133.96 L120.29 134.16 L120.11 134.59 L120.22 134.65 L120.19 134.83 L120.39 134.8 L120.56 134.98 L120.74 134.8 L120.95 135.04 L121.48 134.92 L121.68 135.28 L121.45 135.56 L121.57 135.67 L121.74 135.43 L121.97 135.5 L122.04 135.92 L122.17 135.79 L122.16 135.53 L122.42 135.48 L122.33 136.03 L123.25 136.31 L123.41 136.49 L123.71 136.37 L123.81 136.84 L123.68 137.23 L124.43 137.89 L125.15 137.95 L125.21 138.25 L125.58 137.93 L125.97 138.0 L126.03 138.33 L126.23 138.07 L126.31 138.27 L126.51 138.12 L126.57 138.24 L126.73 138.17 L127.06 138.35 L127.16 138.25 L127.45 138.45 L127.8 138.27 L127.91 137.87 L128.25 137.98 L128.57 137.74 L129.68 138.05 L130.16 138.29 L130.49 138.69 L130.94 138.68 L130.92 138.96 L131.11 138.98 L131.38 139.31 L131.88 139.46 L132.26 139.52 L132.22 139.32 L132.55 139.28 L132.57 139.07 L132.77 139.18 L132.81 139.0 L132.93 139.22 L133.24 139.3 L133.23 139.47 L133.46 139.49 L133.33 139.75 L133.56 139.86 L133.81 140.52 L134.03 140.67 L134.4 140.54 L134.6 140.66 L134.75 141.01 L134.92 141.09 L134.91 141.27 L135.18 141.21 L135.36 141.68 L135.49 141.74 L135.58 141.61 L135.7 141.75 L135.73 141.62 L135.91 141.63 L136.23 141.38 L136.37 141.72 L136.57 141.72 L136.51 141.91 L137.23 142.18 L137.36 142.01 L137.43 142.15 L137.55 142.05 L137.53 142.2 L137.67 142.16 L137.8 142.46 L137.92 142.38 L137.97 142.53 L138.45 142.64 L138.48 142.52 L138.78 142.67 L138.96 142.6 L138.97 142.41 L139.17 142.37 L139.3 142.66 L139.49 142.4 L139.6 142.72 L139.7 142.62 L139.84 142.72 L139.83 143.36 L140.05 143.58 L140.23 143.56 L140.39 143.87 L140.52 143.85 L140.61 144.12 L140.81 144.15 L140.81 144.36 L141.33 144.53 L141.4 144.98 L141.55 145.24 L141.69 145.18 L141.68 145.33 L141.89 145.27 L141.85 145.18 L142.07 145.25 L142.12 145.12 L142.25 145.27 L142.29 145.13 L142.43 145.18 L142.66 145.0 L142.96 145.12 L143.16 145.1 L143.15 144.97 L143.26 145.08 L143.47 144.92 L143.53 145.14 L144.19 145.37 L145.29 145.02 L145.31 144.85 L145.46 145.03 L145.68 144.97 L145.78 145.17 L146.04 145.24 L146.11 145.05 L146.36 145.21 L146.42 145.08 L146.41 145.19 L146.64 145.21 L146.72 144.94 L146.95 145.08 L147.11 145.0 L147.04 144.89 L147.25 144.91 L147.43 145.0 L147.29 145.04 L147.32 145.34 L147.87 145.27 L148.19 145.82 L148.51 145.87 L148.63 146.05 L148.88 146.09 L148.91 146.24 L149.31 146.3 L149.39 146.45 L149.44 146.35 L149.67 146.61 L149.92 146.49 L150.38 146.9 L150.57 146.82 L150.53 146.97 L150.94 147.0 L150.94 147.17 L150.79 147.16 L150.93 147.25 L150.77 147.41 L151.01 147.39 L150.88 147.6 L151.06 147.61 L151.05 147.96 L151.26 147.95 L151.29 148.25 L151.52 148.33 L151.37 148.38 L151.36 148.58 L151.08 148.96 L150.86 149.02 L150.9 149.39 L150.77 149.65 L150.91 149.68 L151.06 150.01 L150.96 150.17 L151.04 150.51 L151.44 150.86 L151.35 151.17 L151.81 151.84 L151.91 152.51 L152.26 152.58 L152.44 155.8 L150.22 155.81 L152.48 158.35 L152.92 163.71 L164.67 164.09 L164.87 163.97 L164.95 163.68 L165.4 163.71 L165.53 164.01 L165.5 164.43 L165.25 164.54 L165.17 164.79 L165.33 165.19 L165.25 165.41 L164.63 165.92 L164.38 166.9 L164.48 167.23 L164.35 167.45 L164.47 167.75 L164.37 168.23 L164.72 168.6 L164.64 168.86 L164.76 168.92 L164.64 168.94 L164.73 169.03 L164.63 169.23 L164.72 169.44 L164.97 169.43 L164.9 169.9 L165.53 170.5 L165.56 170.7 L165.71 170.71 L165.85 171.06 L166.21 171.09 L166.32 171.32 L166.54 171.27 L166.79 171.73 L167.17 171.72 L167.28 172.01 L167.6 172.16 L168.36 171.72 L169.24 172.49 L168.95 172.45 L169.05 172.57 L168.98 172.64 L169.08 172.64 L169.08 173.12 L169.53 173.61 L169.46 173.9 L169.69 174.13 L169.7 174.29 L169.44 174.29 L170.27 175.76 L170.44 176.33 L171.25 176.99 L170.54 177.07 L169.14 181.52 L169.46 181.52 L169.46 182.06 L169.65 182.28 L169.53 182.44 L169.03 182.44 L166.69 187.34 L168.52 188.77 L168.23 189.26 L167.86 189.12 L167.68 189.36 L167.34 189.41 L167.24 189.68 L166.96 189.7 L166.79 189.96 L166.44 190.14 L166.75 190.29 L166.45 190.54 L166.5 190.76 L166.92 190.69 L166.88 191.14 L167.01 191.49 L167.41 191.68 L167.6 191.97 L167.44 192.42 L167.59 192.84 L167.49 193.12 L167.77 193.33 L167.65 193.7 L167.85 193.74 L168.05 193.46 L168.45 193.88 L168.46 194.04 L168.02 194.02 L167.83 194.33 L168.29 194.32 L168.55 194.62 L168.06 195.06 L168.34 195.12 L168.49 195.39 L168.79 195.32 L168.8 195.6 L168.46 196.02 L168.61 196.39 L168.48 196.66 L168.56 197.27 L168.1 197.61 L168.56 197.98 L167.78 199.31 L167.83 199.54 L168.15 199.73 L167.96 199.94 L168.04 200.18 L168.36 200.38 L167.93 200.78 L168.19 200.97 L168.04 201.31 L167.76 201.48 L168.15 201.72 L167.92 201.83 L168.0 202.01 L167.81 202.51 L167.52 202.73 L167.68 202.93 L167.6 203.1 L167.96 203.06 L168.05 203.31 L168.47 203.42 L168.72 203.31 L168.88 203.52 L169.06 203.35 L169.33 203.41 L169.32 203.22 L169.48 203.27 L169.55 203.12 L169.91 203.23 L170.18 203.14 L170.4 203.69 L170.78 203.64 L171.01 203.8 L171.71 203.88 L171.79 204.07 L172.05 204.05 L172.15 204.16 L172.34 203.98 L172.71 204.2 L172.95 203.93 L173.07 204.1 L173.56 204.03 L173.55 204.13 L173.76 204.2 L173.91 204.05 L174.02 204.14 L174.33 204.01 L174.4 204.14 L174.59 204.11 L174.95 204.31 L175.1 204.18 L175.12 204.38 L175.37 204.54 L175.64 204.42 L175.7 204.14 L175.82 204.26 L176.02 204.1 L176.2 204.29 L176.37 204.05 L176.31 203.97 L176.76 204.28 L176.72 204.15 L177.3 203.83 L177.63 203.15 L178.4 203.01 L178.59 203.65 L178.92 203.98 L179.45 204.1 L179.64 204.38 L182.11 204.44 L182.46 205.13 L182.76 205.1 L182.84 205.49 L182.72 205.71 L182.91 206.23 L183.53 206.7 L183.65 206.93 L183.62 207.7 L183.39 207.86 L183.33 208.47 L183.6 209.16 L183.48 209.44 L183.67 209.59 L183.77 210.3 L184.14 210.32 L184.26 210.6 L184.11 210.76 L184.27 211.02 L184.06 211.16 L184.04 211.41 L184.39 211.83 L184.12 212.5 L184.0 212.49 L184.24 213.1 L184.15 213.5 L184.53 213.6 L184.67 214.08 L184.85 214.12 L184.77 214.29 L184.89 214.61 L184.73 214.81 L184.85 215.17 L184.78 215.47 L185.0 215.8 L185.49 216.0 L185.74 215.8 L186.25 216.13 L186.45 215.94 L186.79 215.96 L187.07 215.77 L187.37 215.99 L187.8 215.74 L188.19 215.82 L188.28 215.52 L188.56 215.33 L188.8 215.41 L188.89 215.25 L189.04 215.29 L189.41 215.06 L189.78 215.12 L190.02 214.76 L190.42 215.03 L190.59 214.93 L190.7 215.18 L190.96 215.16 L191.25 215.38 L191.58 215.4 L191.73 215.75 L192.16 216.09 L192.34 216.07 L192.61 216.49 L192.26 216.86 L192.22 217.14 L192.35 217.73 L192.67 218.02 L192.78 218.5 L192.31 219.22 L192.34 220.5 L191.92 221.29 L191.55 222.45 L191.42 223.47 L191.63 223.88 L191.4 224.11 L191.15 224.82 L190.36 225.86 L190.53 226.8 L190.93 226.84 L191.0 227.05 L191.19 226.97 L191.63 227.5 L191.66 227.25 L191.9 227.06 L191.97 226.82 L192.2 226.91 L192.32 226.67 L192.59 226.56 L192.84 226.84 L192.97 226.61 L193.34 226.75 L193.14 226.46 L193.44 226.46 L193.86 226.15 L193.69 226.64 L193.87 226.99 L194.03 226.58 L194.19 226.76 L194.46 226.64 L194.73 226.86 L194.83 227.17 L194.87 226.93 L195.09 226.96 L195.12 227.1 L195.27 227.01 L195.24 227.15 L195.36 227.16 L195.27 227.27 L195.46 227.26 L195.59 227.44 L195.53 227.57 L195.39 227.49 L195.35 227.58 L195.49 227.7 L195.43 227.83 L195.64 227.87 L195.49 227.98 L195.67 228.08 L195.58 228.15 L195.73 228.16 L195.74 228.33 L195.54 228.45 L195.72 228.7 L195.54 228.77 L195.75 228.87 L195.64 228.97 L195.75 228.97 L195.74 229.08 L195.59 229.11 L195.63 229.37 L195.86 229.46 L196.17 229.85 L196.32 229.85 L196.27 230.35 L196.88 230.88 L196.95 231.02 L196.86 231.15 L196.97 231.25 L196.48 232.18 L196.64 232.48 L196.52 232.55 L196.56 232.74 L196.45 232.75 L196.58 232.88 L196.51 233.01 L196.35 232.96 L196.44 233.13 L196.27 233.25 L196.38 233.32 L196.31 233.39 L196.5 233.35 L196.33 233.53 L196.28 233.92 L196.15 233.9 L196.41 233.96 L196.34 234.15 L196.44 234.18 L196.26 234.17 L196.32 234.42 L196.16 234.39 L196.21 234.58 L196.34 234.51 L196.45 234.64 L196.25 234.73 L196.55 234.76 L196.44 234.84 L196.57 235.05 L196.48 235.06 L196.59 235.29 L196.82 235.38 L196.57 235.37 L196.68 235.44 L196.58 235.56 L196.75 235.62 L196.57 235.84 L196.74 235.96 L196.49 235.88 L196.54 236.05 L196.3 236.15 L196.43 236.26 L196.27 236.26 L196.28 236.43 L196.12 236.38 L196.23 236.54 L196.11 236.63 L195.97 236.51 L196.15 236.77 L195.86 236.6 L196.07 236.82 L195.84 236.86 L196.03 237.03 L195.75 237.02 L195.85 237.16 L195.71 237.23 L195.89 237.31 L195.69 237.31 L195.62 237.46 L195.36 237.18 L195.18 237.51 L194.81 237.39 L194.8 237.64 L194.48 237.67 L194.36 238.05 L193.93 238.37 L193.47 238.32 L193.48 238.11 L193.37 238.05 L193.1 238.89 L192.75 239.04 L192.65 239.35 L192.26 239.05 L192.29 239.36 L192.17 239.49 L191.76 239.07 L191.36 239.23 L191.54 239.53 L191.13 239.59 L190.99 239.75 L190.58 239.4 L190.34 239.99 L190.19 240.0 L189.98 239.75 L189.95 240.22 L189.53 240.13 L189.31 240.29 L189.06 239.92 L188.81 240.54 L188.43 240.64 L188.44 241.24 L188.22 241.56 L187.86 241.56 L187.72 241.72 L187.45 241.54 L187.24 241.6 L187.25 241.73 L187.6 241.93 L187.58 242.12 L186.97 242.1 L186.89 242.4 L186.47 242.12 L186.0 242.63 L185.66 242.57 L185.47 242.91 L185.22 242.95 L185.31 243.29 L184.78 243.76 L184.44 243.63 L184.03 244.22 L183.82 244.06 L183.85 243.92 L183.69 243.88 L183.54 244.28 L183.08 244.6 L182.59 244.73 L182.58 244.95 L183.28 245.34 L183.11 245.95 L182.97 245.96 L182.71 245.59 L181.88 245.54 L181.71 245.85 L181.84 246.33 L180.97 246.52 L180.88 246.74 L181.02 247.18 L180.21 247.74 L179.83 248.28 L179.07 248.49 L179.04 249.12 L178.77 249.44 L178.29 249.7 L178.37 250.0 L178.23 250.37 L177.07 250.67 L176.67 251.33 L176.64 251.74 L176.26 252.34 L175.87 252.41 L175.66 253.01 L174.96 253.48 L173.49 255.04 L172.78 255.13 L172.32 255.48 L172.1 255.81 L172.1 256.43 L171.98 256.65 L171.41 256.98 L171.06 257.46 L170.24 257.84 Z" fill="#eef2f7" stroke="#243044" stroke-width="1.6" stroke-linejoin="round" fill-rule="evenodd"/></svg>