<svg xmlns="http://www.w3.org/2000/svg" viewBox="0 0 400 300" width="400" height="300"><path d="M179.12 263.28 L181.22 264.21 L194.67 273.15 L197.58 277.61 L196.71 279.68 L192.85 280.23 L186.87 280.23 L169.68 276.73 L151.92 276.24 L147.82 274.79 L146.7 272.85 L146.95 268.38 L146.23 265.93 L144.02 263.85 L141.71 262.86 L139.9 261.47 L139.15 258.03 L138.87 248.69 L140.35 244.85 L144.5 246.33 L148.1 248.27 L158.75 250.29 L163.53 251.77 L176.73 260.58 L179.12 263.28 Z M366.72 243.8 L366.57 275.38 L365.17 280.06 L362.26 282.0 L360.04 281.07 L357.44 278.88 L355.34 276.22 L354.47 273.97 L353.97 270.74 L352.59 268.91 L333.91 256.0 L331.83 252.65 L330.28 248.69 L326.44 246.77 L316.42 244.68 L300.67 236.59 L298.54 234.88 L288.38 228.81 L284.95 225.08 L289.04 224.95 L292.42 225.79 L298.93 228.62 L303.35 229.76 L311.53 230.96 L314.52 232.16 L315.87 231.08 L318.4 229.76 L319.7 228.62 L327.31 230.2 L334.03 224.02 L337.89 214.39 L337.0 205.64 L339.48 204.9 L342.96 202.85 L345.68 202.1 L346.94 201.55 L349.25 200.09 L351.01 200.16 L352.47 201.23 L354.47 204.84 L355.34 205.64 L366.04 240.17 L366.72 243.8 Z M97.48 137.29 L98.12 139.88 L99.7 142.81 L105.64 150.74 L105.52 152.91 L102.65 157.53 L101.83 160.14 L101.54 162.02 L100.88 163.47 L99.02 164.8 L96.61 165.58 L93.17 166.09 L90.16 165.75 L88.82 163.81 L87.19 160.56 L73.0 147.36 L69.25 145.8 L58.38 145.17 L55.72 144.5 L52.81 142.89 L47.92 138.97 L45.86 136.34 L45.16 134.04 L44.83 131.78 L43.67 129.25 L37.22 122.93 L34.44 118.78 L33.28 112.43 L33.98 109.9 L35.63 106.76 L41.12 98.75 L41.18 95.99 L40.46 93.2 L40.21 90.17 L43.72 44.37 L43.18 41.34 L41.8 38.56 L44.27 34.06 L46.69 27.7 L49.32 22.74 L52.32 22.64 L63.08 18.97 L69.39 18.0 L74.03 19.9 L77.06 23.9 L79.31 28.08 L80.46 32.8 L74.81 81.16 L77.08 91.66 L88.34 107.88 L92.42 118.48 L92.55 121.14 L92.16 126.62 L92.42 129.25 L93.58 131.15 L96.8 134.67 L97.48 137.29 Z" fill="#eef2f7" stroke="#243044" stroke-width="1.6" stroke-linejoin="round" fill-rule="evenodd"/></svg>